<svg width="32" height="32" viewBox="0 0 32 32" fill="none" xmlns="http://www.w3.org/2000/svg">
<defs>
<linearGradient id="paint0_linear_116_12472" x1="-13.8879" y1="16.505" x2="36.95" y2="16.505" gradientUnits="userSpaceOnUse">
<stop stop-color="#8A4026"/>
<stop offset="0.01" stop-color="#966D32"/>
<stop offset="0.03" stop-color="#A78041"/>
<stop offset="0.04" stop-color="#BA9653"/>
<stop offset="0.08" stop-color="#D8B870"/>
<stop offset="0.09" stop-color="#E4C67B"/>
<stop offset="0.12" stop-color="#DBB565"/>
<stop offset="0.13" stop-color="#D9B160"/>
<stop offset="0.16" stop-color="#D2A550"/>
<stop offset="0.18" stop-color="#D0A14B"/>
<stop offset="0.21" stop-color="#D5A750"/>
<stop offset="0.24" stop-color="#DDB258"/>
<stop offset="0.27" stop-color="#E4BD61"/>
<stop offset="0.31" stop-color="#F4D576"/>
<stop offset="0.37" stop-color="#F8E881"/>
<stop offset="0.4" stop-color="#F2DF7B"/>
<stop offset="0.45" stop-color="#E7C969"/>
<stop offset="0.48" stop-color="#E3C263"/>
<stop offset="0.54" stop-color="#F0D35A"/>
<stop offset="0.58" stop-color="#F9DF58"/>
<stop offset="0.62" stop-color="#EFD052"/>
<stop offset="0.69" stop-color="#DBB640"/>
<stop offset="0.74" stop-color="#D2AA38"/>
<stop offset="0.79" stop-color="#C69930"/>
<stop offset="0.84" stop-color="#C1932D"/>
<stop offset="0.85" stop-color="#C59833"/>
<stop offset="0.88" stop-color="#D2A744"/>
<stop offset="0.9" stop-color="#EAC565"/>
<stop offset="0.93" stop-color="#DCB755"/>
<stop offset="0.95" stop-color="#D5AF4C"/>
<stop offset="0.97" stop-color="#CBA542"/>
</linearGradient>
<linearGradient id="paint1_linear_116_12472" x1="-13.8879" y1="16.505" x2="36.95" y2="16.505" gradientUnits="userSpaceOnUse">
<stop stop-color="#8A4026"/>
<stop offset="0.01" stop-color="#966D32"/>
<stop offset="0.03" stop-color="#A78041"/>
<stop offset="0.04" stop-color="#BA9653"/>
<stop offset="0.08" stop-color="#D8B870"/>
<stop offset="0.09" stop-color="#E4C67B"/>
<stop offset="0.12" stop-color="#DBB565"/>
<stop offset="0.13" stop-color="#D9B160"/>
<stop offset="0.16" stop-color="#D2A550"/>
<stop offset="0.18" stop-color="#D0A14B"/>
<stop offset="0.21" stop-color="#D5A750"/>
<stop offset="0.24" stop-color="#DDB258"/>
<stop offset="0.27" stop-color="#E4BD61"/>
<stop offset="0.31" stop-color="#F4D576"/>
<stop offset="0.37" stop-color="#F8E881"/>
<stop offset="0.4" stop-color="#F2DF7B"/>
<stop offset="0.45" stop-color="#E7C969"/>
<stop offset="0.48" stop-color="#E3C263"/>
<stop offset="0.54" stop-color="#F0D35A"/>
<stop offset="0.58" stop-color="#F9DF58"/>
<stop offset="0.62" stop-color="#EFD052"/>
<stop offset="0.69" stop-color="#DBB640"/>
<stop offset="0.74" stop-color="#D2AA38"/>
<stop offset="0.79" stop-color="#C69930"/>
<stop offset="0.84" stop-color="#C1932D"/>
<stop offset="0.85" stop-color="#C59833"/>
<stop offset="0.88" stop-color="#D2A744"/>
<stop offset="0.9" stop-color="#EAC565"/>
<stop offset="0.93" stop-color="#DCB755"/>
<stop offset="0.95" stop-color="#D5AF4C"/>
<stop offset="0.97" stop-color="#CBA542"/>
</linearGradient>
<linearGradient id="paint2_linear_116_12472" x1="-13.8879" y1="16.505" x2="36.95" y2="16.505" gradientUnits="userSpaceOnUse">
<stop stop-color="#8A4026"/>
<stop offset="0.01" stop-color="#966D32"/>
<stop offset="0.03" stop-color="#A78041"/>
<stop offset="0.04" stop-color="#BA9653"/>
<stop offset="0.08" stop-color="#D8B870"/>
<stop offset="0.09" stop-color="#E4C67B"/>
<stop offset="0.12" stop-color="#DBB565"/>
<stop offset="0.13" stop-color="#D9B160"/>
<stop offset="0.16" stop-color="#D2A550"/>
<stop offset="0.18" stop-color="#D0A14B"/>
<stop offset="0.21" stop-color="#D5A750"/>
<stop offset="0.24" stop-color="#DDB258"/>
<stop offset="0.27" stop-color="#E4BD61"/>
<stop offset="0.31" stop-color="#F4D576"/>
<stop offset="0.37" stop-color="#F8E881"/>
<stop offset="0.4" stop-color="#F2DF7B"/>
<stop offset="0.45" stop-color="#E7C969"/>
<stop offset="0.48" stop-color="#E3C263"/>
<stop offset="0.54" stop-color="#F0D35A"/>
<stop offset="0.58" stop-color="#F9DF58"/>
<stop offset="0.62" stop-color="#EFD052"/>
<stop offset="0.69" stop-color="#DBB640"/>
<stop offset="0.74" stop-color="#D2AA38"/>
<stop offset="0.79" stop-color="#C69930"/>
<stop offset="0.84" stop-color="#C1932D"/>
<stop offset="0.85" stop-color="#C59833"/>
<stop offset="0.88" stop-color="#D2A744"/>
<stop offset="0.9" stop-color="#EAC565"/>
<stop offset="0.93" stop-color="#DCB755"/>
<stop offset="0.95" stop-color="#D5AF4C"/>
<stop offset="0.97" stop-color="#CBA542"/>
</linearGradient>
</defs>
<path fill-rule="evenodd" clip-rule="evenodd" d="M14.7166 7.58803C14.6667 7.6456 14.618 7.70293 14.5705 7.75992L14.5483 7.78662C14.2681 8.12327 14.0121 8.43089 13.8379 8.79557C13.6504 9.18826 13.5685 9.61833 13.5685 10.1985C13.5685 10.7786 13.6504 11.2087 13.8379 11.6014C13.9288 11.7918 14.0421 11.9666 14.1694 12.1381H5.53096V24.2249C5.53257 24.8048 5.75558 25.3604 6.15128 25.7706C6.54697 26.1807 7.08322 26.4119 7.64292 26.4138H20.4655V25.2242H19.4627C19.3206 25.2242 19.1843 25.1657 19.0838 25.0616C18.9833 24.9575 18.9269 24.8162 18.9269 24.669V22.607C18.9269 22.4597 18.9833 22.3185 19.0838 22.2144C19.1843 22.1103 19.3206 22.0518 19.4627 22.0518H21.4529C21.5048 22.0517 21.5563 22.0595 21.606 22.0748C22.1955 21.5481 22.948 21.2585 23.7264 21.2587H25.4334V14.5118C26.0228 14.1186 26.532 13.6735 26.9644 13.2267V24.2249C26.9644 26.3028 25.3378 28 23.3215 28H7.64368C6.67782 27.9983 5.75197 27.6 5.069 26.8924C4.38603 26.1848 4.00162 25.2256 4 24.2249V10.3814C4 8.72068 5.29366 7.37162 6.87744 7.37956H7.07034C7.11121 6.86784 7.29777 6.38021 7.60637 5.97845C7.91498 5.5767 8.33175 5.27889 8.80388 5.12278C9.276 4.96666 9.78223 4.95926 10.2584 5.10152C10.7346 5.24377 11.1593 5.52927 11.4787 5.92185C11.7135 5.63285 12.0064 5.40059 12.337 5.24138C12.6676 5.08217 13.0279 4.99988 13.3924 5.00027C14.1602 5.00027 14.8469 5.35796 15.3061 5.92185C15.5409 5.63285 15.8338 5.40059 16.1644 5.24138C16.495 5.08217 16.8553 4.99988 17.2198 5.00027C17.5013 5.00027 17.7718 5.04833 18.0242 5.13698C16.701 5.68651 15.6677 6.54354 14.9025 7.37956H14.7251L14.7274 7.35259C14.6729 7.02671 14.5091 6.73124 14.2649 6.51828C14.0206 6.30532 13.7117 6.18854 13.3924 6.18854C13.0732 6.18854 12.7642 6.30532 12.52 6.51828C12.2758 6.73124 12.112 7.02671 12.0574 7.35259L12.0597 7.37956H14.7251C14.7196 7.44912 14.7168 7.51866 14.7166 7.58803ZM18.9269 15.5709V16.738C18.9269 16.8852 18.9833 17.0264 19.0838 17.1305C19.1843 17.2347 19.3206 17.2932 19.4627 17.2932H21.4529C21.5951 17.2932 21.7313 17.2347 21.8318 17.1305C21.9323 17.0264 21.9888 16.8852 21.9888 16.738V15.7958C21.7409 15.8252 21.4857 15.8436 21.2233 15.8496V16.5001H19.6923V15.7408C19.4286 15.6962 19.1735 15.6391 18.9269 15.5709ZM16.0901 14.1208C16.3754 14.344 16.6829 14.5571 17.0132 14.7527V16.738C17.0132 16.8852 16.9567 17.0264 16.8562 17.1305C16.7557 17.2347 16.6194 17.2932 16.4773 17.2932H14.4871C14.345 17.2932 14.2087 17.2347 14.1082 17.1305C14.0077 17.0264 13.9512 16.8852 13.9512 16.738V14.6759C13.9512 14.5287 14.0077 14.3875 14.1082 14.2834C14.2087 14.1793 14.345 14.1208 14.4871 14.1208H16.0901ZM12.0536 7.37956H10.8977L10.9 7.35259C10.8454 7.02417 10.6797 6.72661 10.4326 6.51316C10.1856 6.2997 9.87333 6.18427 9.55167 6.18752C9.23002 6.19076 8.91997 6.31246 8.67699 6.53086C8.43401 6.74925 8.27395 7.05009 8.22545 7.37956H7.64368C7.45014 7.3784 7.25623 7.3978 7.06651 7.43745C7.03209 8.03002 7.19487 8.6169 7.52768 9.10014C7.86049 9.58338 8.3432 9.93373 8.89524 10.0927C9.24736 10.1942 9.54973 9.87859 9.54973 9.50029C9.54973 9.22191 9.32621 9.00381 9.07513 8.90309C8.7871 8.78752 8.54583 8.57346 8.3913 8.29637C8.23677 8.01929 8.17825 7.69581 8.22545 7.37956H10.8977C10.8497 7.98114 11.0057 8.58122 11.3388 9.07647C11.6719 9.57171 12.1613 9.93109 12.7226 10.0927C13.0748 10.1942 13.3771 9.87859 13.3771 9.50029C13.3771 9.22191 13.1536 9.00381 12.9025 8.90309C12.6145 8.78752 12.3732 8.57346 12.2187 8.29637C12.0642 8.01929 12.0064 7.69581 12.0536 7.37956ZM21.231 24.6373V26.2496L25.2826 22.0518H23.7264C23.0652 22.0539 22.4316 22.327 21.9641 22.8114C21.4965 23.2958 21.233 23.9522 21.231 24.6373ZM19.6923 22.8449V24.4311H20.4716V24.4208L20.4747 24.3843C20.5141 23.8374 20.6823 23.3088 20.9646 22.8449H19.6923ZM8.97562 14.6759C8.97562 14.5287 9.03207 14.3875 9.13256 14.2834C9.23305 14.1793 9.36934 14.1208 9.51146 14.1208H11.5017C11.6438 14.1208 11.7801 14.1793 11.8806 14.2834C11.9811 14.3875 12.0375 14.5287 12.0375 14.6759V16.738C12.0375 16.8852 11.9811 17.0264 11.8806 17.1305C11.7801 17.2347 11.6438 17.2932 11.5017 17.2932H9.51146C9.36934 17.2932 9.23305 17.2347 9.13256 17.1305C9.03207 17.0264 8.97562 16.8852 8.97562 16.738V14.6759ZM9.7411 14.9139V16.5001H11.2721V14.9139H9.7411ZM14.7167 14.9139V16.5001H16.2477V14.9139H14.7167ZM13.9512 18.804C13.9512 18.6568 14.0077 18.5156 14.1082 18.4115C14.2087 18.3073 14.345 18.2488 14.4871 18.2488H16.4773C16.6194 18.2488 16.7557 18.3073 16.8562 18.4115C16.9567 18.5156 17.0132 18.6568 17.0132 18.804V20.8661C17.0132 21.0133 16.9567 21.1545 16.8562 21.2586C16.7557 21.3627 16.6194 21.4212 16.4773 21.4212H14.4871C14.345 21.4212 14.2087 21.3627 14.1082 21.2586C14.0077 21.1545 13.9512 21.0133 13.9512 20.8661V18.804ZM14.7167 19.0419V20.6281H16.2477V19.0419H14.7167ZM18.9269 18.804C18.9269 18.6568 18.9833 18.5156 19.0838 18.4115C19.1843 18.3073 19.3206 18.2488 19.4627 18.2488H21.4529C21.5951 18.2488 21.7313 18.3073 21.8318 18.4115C21.9323 18.5156 21.9888 18.6568 21.9888 18.804V20.8661C21.9888 21.0133 21.9323 21.1545 21.8318 21.2586C21.7313 21.3627 21.5951 21.4212 21.4529 21.4212H19.4627C19.3206 21.4212 19.1843 21.3627 19.0838 21.2586C18.9833 21.1545 18.9269 21.0133 18.9269 20.8661V18.804ZM19.6923 19.0419V20.6281H21.2233V19.0419H19.6923ZM8.97562 22.6069C8.97562 22.4596 9.03207 22.3184 9.13256 22.2143C9.23305 22.1102 9.36934 22.0517 9.51146 22.0517H11.5017C11.6438 22.0517 11.7801 22.1102 11.8806 22.2143C11.9811 22.3184 12.0375 22.4596 12.0375 22.6069V24.6689C12.0375 24.8162 11.9811 24.9574 11.8806 25.0615C11.7801 25.1656 11.6438 25.2241 11.5017 25.2241H9.51146C9.36934 25.2241 9.23305 25.1656 9.13256 25.0615C9.03207 24.9574 8.97562 24.8162 8.97562 24.6689V22.6069ZM9.7411 22.8448V24.431H11.2721V22.8448H9.7411ZM13.9512 22.6069C13.9512 22.4596 14.0077 22.3184 14.1082 22.2143C14.2087 22.1102 14.345 22.0517 14.4871 22.0517H16.4773C16.6194 22.0517 16.7557 22.1102 16.8562 22.2143C16.9567 22.3184 17.0132 22.4596 17.0132 22.6069V24.6689C17.0132 24.8162 16.9567 24.9574 16.8562 25.0615C16.7557 25.1656 16.6194 25.2241 16.4773 25.2241H14.4871C14.345 25.2241 14.2087 25.1656 14.1082 25.0615C14.0077 24.9574 13.9512 24.8162 13.9512 24.6689V22.6069ZM14.7167 22.8448V24.431H16.2477V22.8448H14.7167ZM8.97562 18.804C8.97562 18.6568 9.03207 18.5156 9.13256 18.4115C9.23305 18.3073 9.36934 18.2488 9.51146 18.2488H11.5017C11.6438 18.2488 11.7801 18.3073 11.8806 18.4115C11.9811 18.5156 12.0375 18.6568 12.0375 18.804V20.8661C12.0375 21.0133 11.9811 21.1545 11.8806 21.2586C11.7801 21.3627 11.6438 21.4212 11.5017 21.4212H9.51146C9.36934 21.4212 9.23305 21.3627 9.13256 21.2586C9.03207 21.1545 8.97562 21.0133 8.97562 20.8661V18.804Z" fill="url(#paint0_linear_116_12472)"/>
<path d="M20.9756 8.89882C20.2828 8.89882 19.7212 9.48068 19.7212 10.1984C19.7212 10.9162 20.2828 11.498 20.9756 11.498C21.6684 11.498 22.23 10.9162 22.23 10.1984C22.23 9.48068 21.6684 8.89882 20.9756 8.89882Z" fill="url(#paint1_linear_116_12472)"/>
<path fill-rule="evenodd" clip-rule="evenodd" d="M14.8467 12.34C14.2497 11.6225 13.9512 11.2637 13.9512 10.1984C13.9512 9.13316 14.2497 8.7744 14.8467 8.05689C16.0388 6.62422 18.0381 5 20.9756 5C23.9131 5 25.9124 6.62422 27.1045 8.05689C27.7015 8.7744 28 9.13316 28 10.1984C28 11.2637 27.7015 11.6225 27.1045 12.34C25.9124 13.7726 23.9131 15.3969 20.9756 15.3969C18.0381 15.3969 16.0388 13.7726 14.8467 12.34ZM18.216 10.1984C18.216 8.61937 19.4515 7.33929 20.9756 7.33929C22.4997 7.33929 23.7352 8.61937 23.7352 10.1984C23.7352 11.7775 22.4997 13.0576 20.9756 13.0576C19.4515 13.0576 18.216 11.7775 18.216 10.1984Z" fill="url(#paint2_linear_116_12472)"/>
</svg>
