<svg width="16" height="16" viewBox="0 0 16 16" fill="none" xmlns="http://www.w3.org/2000/svg">
<defs>
<radialGradient id="paint0_radial_1449_6689" cx="0" cy="0" r="1" gradientUnits="userSpaceOnUse" gradientTransform="translate(7.985 7.985) scale(7.74606)">
<stop offset="0.13"/>
<stop offset="0.41" stop-color="#020101"/>
<stop offset="0.57" stop-color="#0A0705"/>
<stop offset="0.71" stop-color="#19100B"/>
<stop offset="0.82" stop-color="#2D1E15"/>
<stop offset="0.93" stop-color="#472F21"/>
<stop offset="1" stop-color="#5C3D2B"/>
</radialGradient>
<radialGradient id="paint1_radial_1449_6689" cx="0" cy="0" r="1" gradientUnits="userSpaceOnUse" gradientTransform="translate(8.80142 7.02034) scale(9.22846)">
<stop offset="0.13" stop-color="white"/>
<stop offset="0.37" stop-color="#FCFCFC"/>
<stop offset="0.52" stop-color="#F4F4F4"/>
<stop offset="0.63" stop-color="#E5E5E5"/>
<stop offset="0.74" stop-color="#D1D1D1"/>
<stop offset="0.81" stop-color="#BFBFBF"/>
<stop offset="0.89" stop-color="#D6D6D6"/>
<stop offset="1" stop-color="white"/>
</radialGradient>
<linearGradient id="paint2_linear_1449_6689" x1="8.54401" y1="13.7095" x2="4.89831" y2="-1.40898" gradientUnits="userSpaceOnUse">
<stop stop-color="#C3962E"/>
<stop offset="0.03" stop-color="#4E2F05"/>
<stop offset="0.13" stop-color="#996D1D"/>
<stop offset="0.22" stop-color="#D09B2F"/>
<stop offset="0.28" stop-color="#F2B73A"/>
<stop offset="0.32" stop-color="#FFC23F"/>
<stop offset="0.45" stop-color="#B07520"/>
<stop offset="0.54" stop-color="white"/>
<stop offset="0.65" stop-color="#BF9700"/>
<stop offset="0.81" stop-color="#F0DFAC"/>
<stop offset="0.82" stop-color="#E7D18B"/>
<stop offset="0.83" stop-color="#D8BC5A"/>
<stop offset="0.84" stop-color="#D4B549"/>
<stop offset="0.85" stop-color="#D0B03D"/>
<stop offset="0.86" stop-color="#CEAD36"/>
<stop offset="0.9" stop-color="#CEAD35"/>
<stop offset="1" stop-color="#FFC23F"/>
</linearGradient>
<linearGradient id="paint3_linear_1449_6689" x1="-7.11595" y1="-1.49334" x2="19.2703" y2="10.9576" gradientUnits="userSpaceOnUse">
<stop stop-color="#8A4026"/>
<stop offset="0.01" stop-color="#966D32"/>
<stop offset="0.03" stop-color="#A78041"/>
<stop offset="0.04" stop-color="#BA9653"/>
<stop offset="0.08" stop-color="#D8B870"/>
<stop offset="0.09" stop-color="#E4C67B"/>
<stop offset="0.12" stop-color="#DBB565"/>
<stop offset="0.13" stop-color="#D9B160"/>
<stop offset="0.16" stop-color="#D2A550"/>
<stop offset="0.18" stop-color="#D0A14B"/>
<stop offset="0.21" stop-color="#D5A750"/>
<stop offset="0.24" stop-color="#DDB258"/>
<stop offset="0.27" stop-color="#E4BD61"/>
<stop offset="0.31" stop-color="#F4D576"/>
<stop offset="0.37" stop-color="#F8E881"/>
<stop offset="0.4" stop-color="#F2DF7B"/>
<stop offset="0.45" stop-color="#E7C969"/>
<stop offset="0.48" stop-color="#E3C263"/>
<stop offset="0.54" stop-color="#F0D35A"/>
<stop offset="0.58" stop-color="#F9DF58"/>
<stop offset="0.62" stop-color="#EFD052"/>
<stop offset="0.69" stop-color="#DBB640"/>
<stop offset="0.74" stop-color="#D2AA38"/>
<stop offset="0.79" stop-color="#C69930"/>
<stop offset="0.84" stop-color="#C1932D"/>
<stop offset="0.85" stop-color="#C59833"/>
<stop offset="0.88" stop-color="#D2A744"/>
<stop offset="0.9" stop-color="#EAC565"/>
<stop offset="0.93" stop-color="#DCB755"/>
<stop offset="0.95" stop-color="#D5AF4C"/>
<stop offset="0.97" stop-color="#CBA542"/>
</linearGradient>
<linearGradient id="paint4_linear_1449_6689" x1="-4.74535" y1="6.13592" x2="20.1089" y2="6.13592" gradientUnits="userSpaceOnUse">
<stop stop-color="#8A4026"/>
<stop offset="0.01" stop-color="#966D32"/>
<stop offset="0.03" stop-color="#A78041"/>
<stop offset="0.04" stop-color="#BA9653"/>
<stop offset="0.08" stop-color="#D8B870"/>
<stop offset="0.09" stop-color="#E4C67B"/>
<stop offset="0.12" stop-color="#DBB565"/>
<stop offset="0.13" stop-color="#D9B160"/>
<stop offset="0.16" stop-color="#D2A550"/>
<stop offset="0.18" stop-color="#D0A14B"/>
<stop offset="0.21" stop-color="#D5A750"/>
<stop offset="0.24" stop-color="#DDB258"/>
<stop offset="0.27" stop-color="#E4BD61"/>
<stop offset="0.31" stop-color="#F4D576"/>
<stop offset="0.37" stop-color="#F8E881"/>
<stop offset="0.4" stop-color="#F2DF7B"/>
<stop offset="0.45" stop-color="#E7C969"/>
<stop offset="0.48" stop-color="#E3C263"/>
<stop offset="0.54" stop-color="#F0D35A"/>
<stop offset="0.58" stop-color="#F9DF58"/>
<stop offset="0.62" stop-color="#EFD052"/>
<stop offset="0.69" stop-color="#DBB640"/>
<stop offset="0.74" stop-color="#D2AA38"/>
<stop offset="0.79" stop-color="#C69930"/>
<stop offset="0.84" stop-color="#C1932D"/>
<stop offset="0.85" stop-color="#C59833"/>
<stop offset="0.88" stop-color="#D2A744"/>
<stop offset="0.9" stop-color="#EAC565"/>
<stop offset="0.93" stop-color="#DCB755"/>
<stop offset="0.95" stop-color="#D5AF4C"/>
<stop offset="0.97" stop-color="#CBA542"/>
</linearGradient>
<clipPath id="clip0_1449_6689">
<rect width="16" height="16" fill="white"/>
</clipPath>
</defs>
<path d="M7.985 15.72C12.2569 15.72 15.72 12.2569 15.72 7.985C15.72 3.71308 12.2569 0.25 7.985 0.25C3.71308 0.25 0.25 3.71308 0.25 7.985C0.25 12.2569 3.71308 15.72 7.985 15.72Z" fill="#111111"/>
<path style="mix-blend-mode:screen" d="M7.985 15.72C12.2569 15.72 15.72 12.2569 15.72 7.985C15.72 3.71308 12.2569 0.25 7.985 0.25C3.71308 0.25 0.25 3.71308 0.25 7.985C0.25 12.2569 3.71308 15.72 7.985 15.72Z" fill="url(#paint0_radial_1449_6689)"/>
<path style="mix-blend-mode:color-burn" d="M7.985 15.72C12.2569 15.72 15.72 12.2569 15.72 7.985C15.72 3.71308 12.2569 0.25 7.985 0.25C3.71308 0.25 0.25 3.71308 0.25 7.985C0.25 12.2569 3.71308 15.72 7.985 15.72Z" fill="url(#paint1_radial_1449_6689)"/>
<g clip-path="url(#clip0_1449_6689)">
<path d="M15.7333 8.00006C15.7333 12.4353 12.0027 15.9966 7.5072 15.7182C3.65547 15.4795 0.520535 12.3446 0.282135 8.49286C0.00346792 3.99739 3.5648 0.266724 8 0.266724C9.21813 0.266724 10.3715 0.54779 11.3973 1.05099C11.6723 1.18592 11.7731 1.52832 11.6213 1.79446L11.6203 1.79632C11.48 2.04219 11.1739 2.13366 10.92 2.00859C9.90187 1.50726 8.73787 1.26326 7.50934 1.35099C4.28267 1.58112 1.64747 4.16912 1.36027 7.39126C1.00293 11.4017 4.2168 14.7678 8.17707 14.6643C11.5685 14.5758 14.3995 11.8862 14.6477 8.50272C14.7123 7.62379 14.6064 6.77286 14.3547 5.98832C14.2749 5.73952 14.3909 5.47099 14.6245 5.35419C14.9163 5.20832 15.2739 5.35419 15.3728 5.66486C15.6069 6.40112 15.7333 7.18566 15.7333 8.00006Z" fill="url(#paint2_linear_1449_6689)"/>
<path d="M8.40683 11.639L8.40682 11.639L4.18976 5.93316C3.9082 5.55209 4.33948 5.06931 4.73585 5.28862L8.41957 7.32754L8.48784 7.36533L8.5411 7.30829L14.8899 0.507765C14.8899 0.507763 14.8899 0.507762 14.8899 0.50776C15.0652 0.320054 15.295 0.336276 15.4563 0.459236C15.6179 0.582491 15.6983 0.804149 15.5686 1.0287L9.47476 11.5775C9.24211 11.9799 8.68223 12.0118 8.40683 11.639Z" fill="url(#paint3_linear_1449_6689)" stroke="url(#paint4_linear_1449_6689)" stroke-width="0.2"/>
</g>
</svg>
