<svg width="21" height="20" viewBox="0 0 21 20" fill="none" xmlns="http://www.w3.org/2000/svg">
<defs>
<linearGradient id="paint0_linear_1415_8595" x1="-18.4474" y1="-2.73312" x2="26.1846" y2="18.769" gradientUnits="userSpaceOnUse">
<stop stop-color="#8A4026"/>
<stop offset="0.01" stop-color="#966D32"/>
<stop offset="0.03" stop-color="#A78041"/>
<stop offset="0.04" stop-color="#BA9653"/>
<stop offset="0.08" stop-color="#D8B870"/>
<stop offset="0.09" stop-color="#E4C67B"/>
<stop offset="0.12" stop-color="#DBB565"/>
<stop offset="0.13" stop-color="#D9B160"/>
<stop offset="0.16" stop-color="#D2A550"/>
<stop offset="0.18" stop-color="#D0A14B"/>
<stop offset="0.21" stop-color="#D5A750"/>
<stop offset="0.24" stop-color="#DDB258"/>
<stop offset="0.27" stop-color="#E4BD61"/>
<stop offset="0.31" stop-color="#F4D576"/>
<stop offset="0.37" stop-color="#F8E881"/>
<stop offset="0.4" stop-color="#F2DF7B"/>
<stop offset="0.45" stop-color="#E7C969"/>
<stop offset="0.48" stop-color="#E3C263"/>
<stop offset="0.54" stop-color="#F0D35A"/>
<stop offset="0.58" stop-color="#F9DF58"/>
<stop offset="0.62" stop-color="#EFD052"/>
<stop offset="0.69" stop-color="#DBB640"/>
<stop offset="0.74" stop-color="#D2AA38"/>
<stop offset="0.79" stop-color="#C69930"/>
<stop offset="0.84" stop-color="#C1932D"/>
<stop offset="0.85" stop-color="#C59833"/>
<stop offset="0.88" stop-color="#D2A744"/>
<stop offset="0.9" stop-color="#EAC565"/>
<stop offset="0.93" stop-color="#DCB755"/>
<stop offset="0.95" stop-color="#D5AF4C"/>
<stop offset="0.97" stop-color="#CBA542"/>
</linearGradient>
</defs>
<path fill-rule="evenodd" clip-rule="evenodd" d="M18.8521 2.22863H18.6953V1.51728C18.6953 0.79277 18.1079 0.205383 17.3835 0.205383C16.6576 0.205383 16.0703 0.79277 16.0703 1.51728V2.22863H14.1153V1.51728C14.1153 0.79277 13.528 0.205383 12.8034 0.205383C12.0782 0.205383 11.4909 0.79277 11.4909 1.51728V2.22863H9.52216V1.51728C9.52216 0.79277 8.93482 0.205383 8.21031 0.205383C7.48514 0.205383 6.89714 0.79277 6.89714 1.51728V2.22863H4.92906V1.51728C4.92906 0.79277 4.34163 0.205383 3.6165 0.205383C2.89204 0.205383 2.3047 0.79277 2.3047 1.51728V2.22863H2.14718C1.23766 2.22863 0.5 2.96564 0.5 3.87516L0.513155 16.8349C0.513155 18.467 1.84075 19.7946 3.47289 19.7946H17.5272C19.1593 19.7946 20.4856 18.467 20.4856 16.8349L20.5 3.87516C20.5 2.96564 19.7624 2.22863 18.8521 2.22863ZM19.1743 16.8349C19.1743 17.7444 18.4361 18.4827 17.5272 18.4827H3.47289C2.5639 18.4827 1.82567 17.7444 1.82567 16.8349V5.71401H19.1743V16.8349ZM4.08391 11.6336H6.87561C7.2451 11.6336 7.54429 11.3343 7.54429 10.9648V8.1725C7.54429 7.80301 7.24505 7.50443 6.87561 7.50443H4.08391C3.71446 7.50443 3.41518 7.80306 3.41518 8.1725V10.9648C3.41522 11.3343 3.71446 11.6336 4.08391 11.6336ZM6.87561 16.7011H4.08391C3.71446 16.7011 3.41522 16.4019 3.41518 16.033V13.2401C3.41518 12.8712 3.71446 12.572 4.08391 12.572H6.87561C7.24505 12.572 7.54429 12.8712 7.54429 13.2401V16.033C7.54429 16.4019 7.2451 16.7011 6.87561 16.7011ZM9.15112 16.7011H11.9435C12.3123 16.7011 12.6122 16.4019 12.6122 16.033V13.24C12.6122 12.8712 12.3123 12.5719 11.9435 12.5719H9.15112C8.78167 12.5719 8.483 12.8712 8.483 13.24V16.033C8.48305 16.4019 8.78167 16.7011 9.15112 16.7011ZM16.9937 11.6336H14.202C13.8325 11.6336 13.5333 11.3343 13.5333 10.9648V8.1725C13.5333 7.80306 13.8325 7.50443 14.202 7.50443H16.9937C17.3638 7.50443 17.6624 7.80301 17.6624 8.1725V10.9648C17.6624 11.3343 17.3638 11.6336 16.9937 11.6336ZM14.4363 8.31879C14.3878 8.31879 14.349 8.35887 14.349 8.40676V10.7306C14.349 10.7791 14.3877 10.8178 14.4363 10.8178H16.7594C16.8079 10.8178 16.8473 10.7791 16.8473 10.7306V8.40676C16.8473 8.35887 16.8079 8.31879 16.7594 8.31879H14.4363ZM14.202 16.7011H16.9937C17.3638 16.7011 17.6624 16.4019 17.6624 16.033V13.2401C17.6624 12.8712 17.3638 12.572 16.9937 12.572H14.202C13.8325 12.572 13.5333 12.8712 13.5333 13.2401V16.033C13.5333 16.4019 13.8325 16.7011 14.202 16.7011ZM11.9257 11.6335H9.13405C8.7639 11.6335 8.46536 11.3343 8.46536 10.9647V8.17243C8.46536 7.80298 8.7639 7.50436 9.13405 7.50436H11.9257C12.2946 7.50436 12.5945 7.80294 12.5945 8.17243V10.9647C12.5945 11.3343 12.2945 11.6335 11.9257 11.6335Z" fill="url(#paint0_linear_1415_8595)"/>
</svg>
