<svg width="75" height="90" viewBox="0 0 75 90" fill="none" xmlns="http://www.w3.org/2000/svg">
<path d="M75 74.9725C74.1823 75.7554 73.339 76.5134 72.4705 77.2464C62.7276 85.4768 50.3249 90 37.5 90C24.6752 90 12.2725 85.4768 2.52954 77.2464C1.66093 76.5142 0.817748 75.7562 0 74.9725C1.01972 71.8539 2.78075 69.0213 5.13598 66.7115C7.49122 64.4017 10.3723 62.6814 13.5386 61.6945L29.4776 56.7321V54.1371C27.4822 52.9658 25.6957 51.6269 24.2226 50.6456C22.8695 49.7423 21.7171 48.5761 20.8358 47.2185C19.9545 45.8612 19.3627 44.3405 19.0966 42.7498L18.2467 37.7339C17.1393 37.7358 16.0652 37.3605 15.2054 36.6719C14.3456 35.983 13.7529 35.0225 13.5271 33.9525C13.3014 32.8825 13.4565 31.7687 13.9662 30.7983C14.4759 29.828 15.3091 29.061 16.3252 28.6265C14.8258 25.1496 13.7395 21.513 13.0879 17.7894C12.6712 15.4181 12.4364 12.9171 13.1419 10.6304C13.8473 8.34371 15.7125 6.33732 17.9146 6.29793L18.2033 6.31765C19.5919 4.17572 21.7646 2.76476 24.0441 1.94924C26.3237 1.13371 28.7288 0.855691 31.1141 0.585781C32.0459 0.479207 32.9826 0.372643 33.9217 0.279971C38.2517 -0.131268 42.967 -0.232054 47.3947 0.985443C51.8221 2.20294 56.1018 4.93218 58.3567 9.28318C60.148 12.7353 60.5106 16.8998 60.0599 20.8396C59.7619 23.4541 59.1267 25.9991 58.3825 28.5116C59.4512 28.8885 60.3507 29.626 60.9221 30.5937C61.4931 31.5616 61.6996 32.6973 61.5044 33.8008C61.3095 34.904 60.7255 35.9038 59.8558 36.6235C58.9865 37.3432 57.8871 37.7366 56.752 37.7339L55.9012 42.7522C55.6352 44.3426 55.0436 45.8631 54.1629 47.2206C53.282 48.5782 52.1302 49.7441 50.7775 50.648C49.3031 51.6292 47.5191 52.9647 45.5213 54.1395V56.7321L61.4592 61.698C64.6255 62.684 67.5069 64.4035 69.8626 66.7128C72.2182 69.0221 73.9798 71.8542 75 74.9725Z" fill="#ECC936"/>
</svg>
