<svg width="15" height="14" viewBox="0 0 15 14" fill="none" xmlns="http://www.w3.org/2000/svg">
<path d="M6.45943 11.2439C6.64504 11.0991 6.81339 10.9308 7.15006 10.5941L11.4643 6.27985C10.8771 6.03546 10.1817 5.63403 9.52396 4.97631C8.86614 4.31849 8.46469 3.62292 8.22031 3.03569L3.90598 7.35002L3.90595 7.35006C3.5693 7.68671 3.40096 7.85505 3.25619 8.04065C3.08541 8.2596 2.93899 8.49651 2.81953 8.74718C2.71826 8.95968 2.64298 9.18552 2.49241 9.63723L1.69843 12.0192C1.62433 12.2415 1.68219 12.4865 1.84787 12.6522C2.01355 12.8179 2.25862 12.8757 2.48091 12.8017L4.86285 12.0077C5.31455 11.8571 5.54041 11.7818 5.7529 11.6805C6.00357 11.5611 6.24048 11.4147 6.45943 11.2439Z" fill="#FFF8C2"/>
<path d="M12.6615 5.0827C13.5573 4.18687 13.5573 2.73445 12.6615 1.83862C11.7656 0.942791 10.3132 0.942791 9.41738 1.83862L8.89994 2.35606C8.90703 2.37745 8.91438 2.39915 8.922 2.42112C9.11166 2.96779 9.46951 3.68442 10.1427 4.35759C10.8159 5.03077 11.5325 5.38861 12.0792 5.57827C12.101 5.58586 12.1226 5.59318 12.1439 5.60023L12.6615 5.0827Z" fill="#FFF8C2"/>
</svg>
