<svg width="197" height="197" viewBox="0 0 197 197" fill="none" xmlns="http://www.w3.org/2000/svg">
<mask id="mask0_1267_3763" style="mask-type:luminance" maskUnits="userSpaceOnUse" x="0" y="0" width="197" height="197">
<path d="M197 0H0V197H197V0Z" fill="white"/>
</mask>
<g mask="url(#mask0_1267_3763)">
<mask id="mask1_1267_3763" style="mask-type:luminance" maskUnits="userSpaceOnUse" x="0" y="0" width="197" height="197">
<path d="M196.066 0H0V196.066H196.066V0Z" fill="white"/>
</mask>
<g mask="url(#mask1_1267_3763)">
<path fill-rule="evenodd" clip-rule="evenodd" d="M89.6054 0.478267C91.9046 0.162922 94.2514 0 96.6355 0C98.9943 0 101.317 0.159496 103.593 0.468319C113.659 1.85814 122.526 6.33612 130.025 13.8322C139.206 23.0152 143.86 34.2491 143.86 47.2212C143.86 60.1977 139.206 71.4301 130.026 80.6102C120.861 89.7766 109.648 94.43 96.6997 94.4453H96.6355C114.843 94.4453 129.536 79.6835 129.536 61.3895C107.605 61.3895 96.6355 44.8615 96.6355 28.3336C96.6355 44.8615 85.6657 61.3895 63.7355 61.3895C63.7355 79.6835 78.4277 94.4453 96.6355 94.4453H96.5711C83.6262 94.43 72.4142 89.7751 63.2478 80.6117C54.0662 71.4316 49.4111 60.1977 49.4111 47.2212C49.4111 34.2476 54.0662 23.0137 63.2463 13.8337C70.7258 6.35417 79.5677 1.87944 89.6054 0.478267Z" fill="#ECC936"/>
<path d="M179.266 150.764C179.001 146.944 178.465 142.776 177.677 138.376C176.881 133.942 175.856 129.751 174.63 125.92C173.363 121.96 171.64 118.05 169.51 114.303C167.299 110.414 164.702 107.027 161.788 104.24C158.741 101.325 155.01 98.9806 150.696 97.2709C146.397 95.5701 141.633 94.7084 136.536 94.7084C134.535 94.7084 132.599 95.5297 128.861 97.9634C126.56 99.4638 123.869 101.199 120.866 103.118C118.297 104.755 114.818 106.288 110.52 107.676C106.327 109.033 102.07 109.721 97.8682 109.721C93.6664 109.721 89.4106 109.033 85.2133 107.676C80.9201 106.29 77.4408 104.756 74.8754 103.12C71.9001 101.219 69.2075 99.4832 66.8725 97.9619C63.1388 95.5282 61.2017 94.707 59.2002 94.707C54.1023 94.707 49.3395 95.5701 45.0419 97.2723C40.7308 98.9791 36.9986 101.323 33.9486 104.242C31.0361 107.03 28.4378 110.415 26.2299 114.303C24.1013 118.05 22.3781 121.959 21.1096 125.921C19.8845 129.752 18.8598 133.942 18.064 138.376C17.2757 142.771 16.7402 146.939 16.4754 150.769C16.2151 154.52 16.0835 158.414 16.0835 162.347C16.0835 172.581 19.337 180.867 25.7527 186.978C32.0892 193.007 40.4735 196.066 50.6693 196.066H145.076C155.272 196.066 163.653 193.009 169.991 186.978C176.408 180.871 179.662 172.584 179.662 162.345C179.66 158.395 179.527 154.498 179.266 150.764Z" fill="#ECC936"/>
<path d="M143.86 63.2598V74.805C143.863 77.866 145.081 80.8005 147.245 82.9649C149.41 85.1293 152.344 86.3468 155.405 86.3503H157.055V74.805C157.051 71.7441 155.834 68.8096 153.669 66.6451C151.505 64.4807 148.57 63.2632 145.509 63.2598H143.86Z" fill="#ECC936"/>
<path d="M49.4115 63.2598V74.805C49.408 77.866 48.1905 80.8005 46.0261 82.9649C43.8617 85.1293 40.9271 86.3468 37.8662 86.3503H36.2168V74.805C36.2203 71.7441 37.4378 68.8096 39.6022 66.6451C41.7666 64.4807 44.7012 63.2632 47.7621 63.2598H49.4115Z" fill="#ECC936"/>
</g>
</g>
</svg>