<svg width="36" height="36" viewBox="0 0 36 36" fill="none" xmlns="http://www.w3.org/2000/svg">
<defs>
<linearGradient id="paint0_linear_1164_5715" x1="-0.949732" y1="14.9882" x2="29.0586" y2="28.3947" gradientUnits="userSpaceOnUse">
<stop stop-color="#8A4026"/>
<stop offset="0.01" stop-color="#966D32"/>
<stop offset="0.03" stop-color="#A78041"/>
<stop offset="0.04" stop-color="#BA9653"/>
<stop offset="0.08" stop-color="#D8B870"/>
<stop offset="0.09" stop-color="#E4C67B"/>
<stop offset="0.12" stop-color="#DBB565"/>
<stop offset="0.13" stop-color="#D9B160"/>
<stop offset="0.16" stop-color="#D2A550"/>
<stop offset="0.18" stop-color="#D0A14B"/>
<stop offset="0.21" stop-color="#D5A750"/>
<stop offset="0.24" stop-color="#DDB258"/>
<stop offset="0.27" stop-color="#E4BD61"/>
<stop offset="0.31" stop-color="#F4D576"/>
<stop offset="0.37" stop-color="#F8E881"/>
<stop offset="0.4" stop-color="#F2DF7B"/>
<stop offset="0.45" stop-color="#E7C969"/>
<stop offset="0.48" stop-color="#E3C263"/>
<stop offset="0.54" stop-color="#F0D35A"/>
<stop offset="0.58" stop-color="#F9DF58"/>
<stop offset="0.62" stop-color="#EFD052"/>
<stop offset="0.69" stop-color="#DBB640"/>
<stop offset="0.74" stop-color="#D2AA38"/>
<stop offset="0.79" stop-color="#C69930"/>
<stop offset="0.84" stop-color="#C1932D"/>
<stop offset="0.85" stop-color="#C59833"/>
<stop offset="0.88" stop-color="#D2A744"/>
<stop offset="0.9" stop-color="#EAC565"/>
<stop offset="0.93" stop-color="#DCB755"/>
<stop offset="0.95" stop-color="#D5AF4C"/>
<stop offset="0.97" stop-color="#CBA542"/>
</linearGradient>
<linearGradient id="paint1_linear_1164_5715" x1="16.7664" y1="8.81248" x2="24.1454" y2="12.2944" gradientUnits="userSpaceOnUse">
<stop stop-color="#8A4026"/>
<stop offset="0.01" stop-color="#966D32"/>
<stop offset="0.03" stop-color="#A78041"/>
<stop offset="0.04" stop-color="#BA9653"/>
<stop offset="0.08" stop-color="#D8B870"/>
<stop offset="0.09" stop-color="#E4C67B"/>
<stop offset="0.12" stop-color="#DBB565"/>
<stop offset="0.13" stop-color="#D9B160"/>
<stop offset="0.16" stop-color="#D2A550"/>
<stop offset="0.18" stop-color="#D0A14B"/>
<stop offset="0.21" stop-color="#D5A750"/>
<stop offset="0.24" stop-color="#DDB258"/>
<stop offset="0.27" stop-color="#E4BD61"/>
<stop offset="0.31" stop-color="#F4D576"/>
<stop offset="0.37" stop-color="#F8E881"/>
<stop offset="0.4" stop-color="#F2DF7B"/>
<stop offset="0.45" stop-color="#E7C969"/>
<stop offset="0.48" stop-color="#E3C263"/>
<stop offset="0.54" stop-color="#F0D35A"/>
<stop offset="0.58" stop-color="#F9DF58"/>
<stop offset="0.62" stop-color="#EFD052"/>
<stop offset="0.69" stop-color="#DBB640"/>
<stop offset="0.74" stop-color="#D2AA38"/>
<stop offset="0.79" stop-color="#C69930"/>
<stop offset="0.84" stop-color="#C1932D"/>
<stop offset="0.85" stop-color="#C59833"/>
<stop offset="0.88" stop-color="#D2A744"/>
<stop offset="0.9" stop-color="#EAC565"/>
<stop offset="0.93" stop-color="#DCB755"/>
<stop offset="0.95" stop-color="#D5AF4C"/>
<stop offset="0.97" stop-color="#CBA542"/>
</linearGradient>
<linearGradient id="paint2_linear_1164_5715" x1="-25.4433" y1="2.0823" x2="29.8533" y2="40.9032" gradientUnits="userSpaceOnUse">
<stop stop-color="#8A4026"/>
<stop offset="0.01" stop-color="#966D32"/>
<stop offset="0.03" stop-color="#A78041"/>
<stop offset="0.04" stop-color="#BA9653"/>
<stop offset="0.08" stop-color="#D8B870"/>
<stop offset="0.09" stop-color="#E4C67B"/>
<stop offset="0.12" stop-color="#DBB565"/>
<stop offset="0.13" stop-color="#D9B160"/>
<stop offset="0.16" stop-color="#D2A550"/>
<stop offset="0.18" stop-color="#D0A14B"/>
<stop offset="0.21" stop-color="#D5A750"/>
<stop offset="0.24" stop-color="#DDB258"/>
<stop offset="0.27" stop-color="#E4BD61"/>
<stop offset="0.31" stop-color="#F4D576"/>
<stop offset="0.37" stop-color="#F8E881"/>
<stop offset="0.4" stop-color="#F2DF7B"/>
<stop offset="0.45" stop-color="#E7C969"/>
<stop offset="0.48" stop-color="#E3C263"/>
<stop offset="0.54" stop-color="#F0D35A"/>
<stop offset="0.58" stop-color="#F9DF58"/>
<stop offset="0.62" stop-color="#EFD052"/>
<stop offset="0.69" stop-color="#DBB640"/>
<stop offset="0.74" stop-color="#D2AA38"/>
<stop offset="0.79" stop-color="#C69930"/>
<stop offset="0.84" stop-color="#C1932D"/>
<stop offset="0.85" stop-color="#C59833"/>
<stop offset="0.88" stop-color="#D2A744"/>
<stop offset="0.9" stop-color="#EAC565"/>
<stop offset="0.93" stop-color="#DCB755"/>
<stop offset="0.95" stop-color="#D5AF4C"/>
<stop offset="0.97" stop-color="#CBA542"/>
</linearGradient>
<clipPath id="clip0_1164_5715">
<rect width="30" height="30" fill="white" transform="translate(3 3)"/>
</clipPath>
</defs>
<g clip-path="url(#clip0_1164_5715)">
<path d="M21.75 18.9844L22.0312 18.8672C22.2656 18.7734 22.4531 18.6094 22.5468 18.375C22.6406 18.1406 22.664 17.8828 22.5703 17.6484C22.4531 17.2969 22.1015 17.0625 21.7031 17.0625C21.5859 17.0625 21.4921 17.0859 21.375 17.1328L19.1015 17.9766C18.8671 18.0234 18.6328 18.1641 18.4921 18.375C18.4687 18.3984 18.4687 18.4219 18.4453 18.4688L18.4218 18.4922C18.3046 18.7266 18.2812 18.9844 18.375 19.2422L19.289 21.6797C19.4062 21.9844 19.6406 22.1953 19.9453 22.2656C20.1328 22.3125 20.3203 22.2891 20.4843 22.2188C20.7187 22.125 20.9062 21.9609 21 21.7266C21.0937 21.4922 21.1171 21.2344 21.0234 21L20.9062 20.6953C22.2656 21.7969 22.9218 23.6484 22.5234 25.3828C22.0546 27.5391 20.1796 29.0156 18 29.0156C17.6484 29.0156 17.2968 28.9688 16.9453 28.8984C15.7265 28.6172 14.6953 27.8672 14.039 26.8125C13.3828 25.7578 13.1718 24.4922 13.4531 23.2969C13.5 23.0625 13.4765 22.8047 13.3359 22.5937C13.1953 22.3828 13.0078 22.2422 12.75 22.1719C12.6796 22.1484 12.6093 22.1484 12.539 22.1484C12.0937 22.1484 11.7187 22.4531 11.625 22.875C10.8046 26.3906 13.0078 29.9063 16.5234 30.7266C17.0156 30.8438 17.5078 30.8906 18 30.8906C21.0703 30.8906 23.6953 28.8047 24.375 25.8281C24.9843 23.2031 23.9296 20.5078 21.75 18.9844Z" fill="url(#paint0_linear_1164_5715)"/>
<path d="M23.1562 10.9453C23.1562 10.0313 22.4062 9.30469 21.5156 9.30469C20.625 9.30469 19.875 10.0547 19.875 10.9453C19.875 11.8594 20.625 12.5859 21.5156 12.5859C22.4062 12.5859 23.1562 11.8594 23.1562 10.9453Z" fill="url(#paint1_linear_1164_5715)"/>
<path d="M31.8047 5.10938H4.17187C3.51562 5.10938 3 5.60156 3 6.25781V24.0938C3 24.7266 3.51562 25.2656 4.17187 25.2656H10.1016C10.0078 24.3281 10.0547 23.4844 10.2656 22.5703C10.5234 21.4922 11.4609 20.7422 12.5391 20.7422C12.7266 20.7422 12.8906 20.7656 13.0781 20.8125C13.6875 20.9531 14.2031 21.3281 14.5312 21.8672C14.8594 22.4062 14.9766 23.0391 14.8359 23.6484C14.7187 24.1875 14.7187 24.8203 14.8828 25.2891H21.1641C21.1875 25.2891 21.1875 25.1953 21.2109 25.125C21.3281 24.5859 21.3281 24.0469 21.1641 23.5078C21.1172 23.5312 21.0703 23.5547 21.0234 23.5781C20.7656 23.6719 20.4844 23.7188 20.2031 23.7188C20.0156 23.7188 19.8516 23.6953 19.6641 23.6484C18.8906 23.4609 18.2812 22.9219 18 22.1953L17.0625 19.7344C16.8281 19.125 16.875 18.4688 17.1562 17.8828C17.1797 17.8359 17.2031 17.8125 17.2031 17.7891C17.2266 17.7188 17.2734 17.6484 17.3437 17.5781C17.6719 17.1094 18.1406 16.7812 18.6797 16.6406L20.3203 16.0312L15.1172 10.7812C15.0234 10.6875 14.8828 10.6875 14.7891 10.7812L10.5 15.0703L8.55469 13.125C8.46094 13.0312 8.32031 13.0312 8.22656 13.125L5.10937 16.2188V7.21875H30.8906V17.3672L26.625 13.1016C26.5312 13.0078 26.3906 13.0078 26.2969 13.1016L23.2031 16.1953C23.5078 16.4531 23.7656 16.7812 23.9062 17.1797C24.1172 17.7656 24.0937 18.3984 23.8594 18.9609C25.4297 20.6484 26.1797 22.9219 25.9219 25.2656H31.8281C32.4844 25.2656 33.0234 24.7266 33.0234 24.0703V6.23438C33 5.60156 32.4609 5.10938 31.8047 5.10938Z" fill="url(#paint2_linear_1164_5715)"/>
</g>
</svg>
