<svg width="40" height="40" viewBox="0 0 40 40" fill="none" xmlns="http://www.w3.org/2000/svg">
<defs>
<linearGradient id="paint0_linear_242_4715" x1="20" y1="0" x2="20" y2="40" gradientUnits="userSpaceOnUse">
<stop stop-color="#5C3D2B"/>
<stop offset="1" stop-color="#331F15"/>
</linearGradient>
<linearGradient id="paint1_linear_242_4715" x1="21.4067" y1="34.7656" x2="11.9784" y2="-4.33375" gradientUnits="userSpaceOnUse">
<stop stop-color="#C3962E"/>
<stop offset="0.03" stop-color="#4E2F05"/>
<stop offset="0.13" stop-color="#996D1D"/>
<stop offset="0.22" stop-color="#D09B2F"/>
<stop offset="0.28" stop-color="#F2B73A"/>
<stop offset="0.32" stop-color="#FFC23F"/>
<stop offset="0.45" stop-color="#B07520"/>
<stop offset="0.54" stop-color="white"/>
<stop offset="0.65" stop-color="#BF9700"/>
<stop offset="0.81" stop-color="#F0DFAC"/>
<stop offset="0.82" stop-color="#E7D18B"/>
<stop offset="0.83" stop-color="#D8BC5A"/>
<stop offset="0.84" stop-color="#D4B549"/>
<stop offset="0.85" stop-color="#D0B03D"/>
<stop offset="0.86" stop-color="#CEAD36"/>
<stop offset="0.9" stop-color="#CEAD35"/>
<stop offset="1" stop-color="#FFC23F"/>
</linearGradient>
<linearGradient id="paint2_linear_242_4715" x1="-6.05263" y1="10.8999" x2="30.1237" y2="32.8477" gradientUnits="userSpaceOnUse">
<stop stop-color="#8A4026"/>
<stop offset="0.01" stop-color="#966D32"/>
<stop offset="0.03" stop-color="#A78041"/>
<stop offset="0.04" stop-color="#BA9653"/>
<stop offset="0.08" stop-color="#D8B870"/>
<stop offset="0.09" stop-color="#E4C67B"/>
<stop offset="0.12" stop-color="#DBB565"/>
<stop offset="0.13" stop-color="#D9B160"/>
<stop offset="0.16" stop-color="#D2A550"/>
<stop offset="0.18" stop-color="#D0A14B"/>
<stop offset="0.21" stop-color="#D5A750"/>
<stop offset="0.24" stop-color="#DDB258"/>
<stop offset="0.27" stop-color="#E4BD61"/>
<stop offset="0.31" stop-color="#F4D576"/>
<stop offset="0.37" stop-color="#F8E881"/>
<stop offset="0.4" stop-color="#F2DF7B"/>
<stop offset="0.45" stop-color="#E7C969"/>
<stop offset="0.48" stop-color="#E3C263"/>
<stop offset="0.54" stop-color="#F0D35A"/>
<stop offset="0.58" stop-color="#F9DF58"/>
<stop offset="0.62" stop-color="#EFD052"/>
<stop offset="0.69" stop-color="#DBB640"/>
<stop offset="0.74" stop-color="#D2AA38"/>
<stop offset="0.79" stop-color="#C69930"/>
<stop offset="0.84" stop-color="#C1932D"/>
<stop offset="0.85" stop-color="#C59833"/>
<stop offset="0.88" stop-color="#D2A744"/>
<stop offset="0.9" stop-color="#EAC565"/>
<stop offset="0.93" stop-color="#DCB755"/>
<stop offset="0.95" stop-color="#D5AF4C"/>
<stop offset="0.97" stop-color="#CBA542"/>
</linearGradient>
</defs>
<rect x="0.5" y="0.5" width="39" height="39" rx="6.5" fill="url(#paint0_linear_242_4715)"/>
<rect x="0.5" y="0.5" width="39" height="39" rx="6.5" stroke="url(#paint1_linear_242_4715)"/>
<path fill-rule="evenodd" clip-rule="evenodd" d="M20.1742 14.8218C20.0592 14.8013 19.9408 14.8013 19.8257 14.8218C19.7247 14.8398 19.6143 14.884 19.0984 15.1289L13.4541 17.8075C13.3235 17.8695 13.213 17.9221 13.1188 17.9678C13.213 18.0135 13.3235 18.0661 13.4541 18.128L19.0984 20.8067C19.6143 21.0516 19.7247 21.0958 19.8257 21.1137C19.9408 21.1342 20.0592 21.1342 20.1742 21.1137C20.2753 21.0958 20.3856 21.0516 20.9016 20.8067L26.5459 18.128C26.6764 18.0661 26.787 18.0135 26.8812 17.9678C26.787 17.9221 26.6764 17.8695 26.5459 17.8075L20.9016 15.1289C20.3856 14.884 20.2753 14.8398 20.1742 14.8218ZM19.5112 13.0432C19.8344 12.9856 20.1656 12.9856 20.4888 13.0432C20.858 13.1089 21.1987 13.271 21.5921 13.4582C21.6182 13.4706 21.6446 13.4832 21.6711 13.4958L27.3485 16.1902C27.6511 16.3338 27.9304 16.4663 28.1442 16.5919C28.3496 16.7127 28.6581 16.916 28.8351 17.2704C29.055 17.7103 29.055 18.2252 28.8351 18.6652C28.6581 19.0196 28.3496 19.2228 28.1442 19.3436C27.9304 19.4693 27.6511 19.6018 27.3484 19.7454L21.6711 22.4398C21.6446 22.4524 21.6182 22.4649 21.5921 22.4774C21.1987 22.6645 20.858 22.8266 20.4888 22.8924C20.1656 22.9499 19.8344 22.9499 19.5112 22.8924C19.142 22.8266 18.8013 22.6645 18.4079 22.4774C18.3818 22.4649 18.3554 22.4524 18.3289 22.4398L12.6846 19.7612C12.6736 19.7559 12.6625 19.7507 12.6516 19.7454C12.3489 19.6018 12.0696 19.4693 11.8558 19.3436C11.6505 19.2228 11.3419 19.0196 11.1649 18.6652C10.945 18.2252 10.945 17.7103 11.1649 17.2704C11.3419 16.916 11.6505 16.7127 11.8558 16.5919C12.0696 16.4663 12.3488 16.3338 12.6515 16.1901C12.6625 16.1849 12.6735 16.1797 12.6846 16.1745L18.3289 13.4958C18.3554 13.4832 18.3818 13.4706 18.4079 13.4582C18.8013 13.271 19.1421 13.1089 19.5112 13.0432ZM12.7142 21.8176C12.4648 21.4476 11.9745 21.3116 11.5659 21.5173C11.1216 21.7409 10.942 22.2837 11.1648 22.7296C11.3419 23.0841 11.6504 23.2873 11.8558 23.4081C12.0695 23.5338 12.3488 23.6663 12.6515 23.8099L18.3288 26.5042C18.3554 26.5169 18.3817 26.5293 18.4078 26.5418C18.8012 26.729 19.142 26.8911 19.5112 26.9568C19.8343 27.0144 20.1656 27.0144 20.4887 26.9568C20.8579 26.8911 21.1986 26.729 21.592 26.5418C21.6181 26.5294 21.6445 26.5169 21.6711 26.5042L27.3484 23.8099C27.6511 23.6663 27.9303 23.5338 28.1441 23.4081C28.3495 23.2873 28.658 23.0841 28.8351 22.7296C29.0578 22.2837 28.8783 21.7409 28.434 21.5173C28.0254 21.3116 27.5351 21.4476 27.2857 21.8176C27.2733 21.8257 27.2565 21.8362 27.2342 21.8494C27.0979 21.9295 26.8929 22.0278 26.5459 22.1925L20.9016 24.8712C20.3855 25.1161 20.2753 25.1602 20.1742 25.1782C20.0591 25.1987 19.9408 25.1987 19.8257 25.1782C19.7246 25.1602 19.6143 25.1161 19.0983 24.8712L13.454 22.1925C13.107 22.0278 12.902 21.9295 12.7657 21.8494C12.7433 21.8362 12.7265 21.8257 12.7142 21.8176Z" fill="url(#paint2_linear_242_4715)"/>
</svg>
