<svg width="197" height="198" viewBox="0 0 197 198" fill="none" xmlns="http://www.w3.org/2000/svg">
<mask id="mask0_1267_3746" style="mask-type:luminance" maskUnits="userSpaceOnUse" x="0" y="0" width="197" height="198">
<path d="M197 0.5H0V197.5H197V0.5Z" fill="white"/>
</mask>
<g mask="url(#mask0_1267_3746)">
<mask id="mask1_1267_3746" style="mask-type:luminance" maskUnits="userSpaceOnUse" x="0" y="0" width="197" height="197">
<path d="M196.066 0.5H0V196.566H196.066V0.5Z" fill="white"/>
</mask>
<g mask="url(#mask1_1267_3746)">
<path d="M96.6354 94.9453C109.611 94.9453 120.846 90.2917 130.026 81.1102C139.206 71.9301 143.86 60.6977 143.86 47.7212C143.86 34.7491 139.206 23.5152 130.025 14.3322C120.843 5.15361 109.609 0.5 96.6354 0.5C83.6588 0.5 72.4264 5.15361 63.2463 14.3337C54.0662 23.5137 49.4111 34.7476 49.4111 47.7212C49.4111 60.6977 54.0662 71.9316 63.2478 81.1117C72.4294 90.2902 83.6633 94.9453 96.6354 94.9453Z" fill="#ECC936"/>
<path d="M179.266 151.264C179.001 147.444 178.465 143.276 177.677 138.876C176.881 134.442 175.856 130.251 174.63 126.42C173.363 122.46 171.64 118.55 169.51 114.803C167.299 110.914 164.702 107.527 161.788 104.74C158.741 101.825 155.01 99.4806 150.696 97.7709C146.397 96.0701 141.633 95.2084 136.536 95.2084C134.535 95.2084 132.599 96.0297 128.861 98.4634C126.56 99.9638 123.869 101.699 120.866 103.618C118.297 105.255 114.818 106.788 110.52 108.176C106.327 109.533 102.07 110.221 97.8682 110.221C93.6664 110.221 89.4106 109.533 85.2133 108.176C80.9201 106.79 77.4408 105.256 74.8754 103.62C71.9001 101.719 69.2075 99.9832 66.8725 98.4619C63.1388 96.0282 61.2017 95.207 59.2002 95.207C54.1023 95.207 49.3395 96.0701 45.0419 97.7723C40.7308 99.4791 36.9986 101.823 33.9486 104.742C31.0361 107.53 28.4378 110.915 26.2299 114.803C24.1013 118.55 22.3781 122.459 21.1096 126.421C19.8845 130.252 18.8598 134.442 18.064 138.876C17.2757 143.271 16.7402 147.439 16.4754 151.269C16.2151 155.02 16.0835 158.914 16.0835 162.847C16.0835 173.081 19.337 181.367 25.7527 187.478C32.0892 193.507 40.4735 196.566 50.6693 196.566H145.076C155.272 196.566 163.653 193.509 169.991 187.478C176.408 181.371 179.662 173.084 179.662 162.845C179.66 158.895 179.527 154.998 179.266 151.264Z" fill="#ECC936"/>
</g>
</g>
</svg>