<svg width="20" height="20" viewBox="0 0 20 20" fill="none" xmlns="http://www.w3.org/2000/svg">
<defs>
<linearGradient id="paint0_linear_639_21741" x1="-18.9474" y1="-2.73318" x2="25.6846" y2="18.7689" gradientUnits="userSpaceOnUse">
<stop stop-color="#8A4026"/>
<stop offset="0.01" stop-color="#966D32"/>
<stop offset="0.03" stop-color="#A78041"/>
<stop offset="0.04" stop-color="#BA9653"/>
<stop offset="0.08" stop-color="#D8B870"/>
<stop offset="0.09" stop-color="#E4C67B"/>
<stop offset="0.12" stop-color="#DBB565"/>
<stop offset="0.13" stop-color="#D9B160"/>
<stop offset="0.16" stop-color="#D2A550"/>
<stop offset="0.18" stop-color="#D0A14B"/>
<stop offset="0.21" stop-color="#D5A750"/>
<stop offset="0.24" stop-color="#DDB258"/>
<stop offset="0.27" stop-color="#E4BD61"/>
<stop offset="0.31" stop-color="#F4D576"/>
<stop offset="0.37" stop-color="#F8E881"/>
<stop offset="0.4" stop-color="#F2DF7B"/>
<stop offset="0.45" stop-color="#E7C969"/>
<stop offset="0.48" stop-color="#E3C263"/>
<stop offset="0.54" stop-color="#F0D35A"/>
<stop offset="0.58" stop-color="#F9DF58"/>
<stop offset="0.62" stop-color="#EFD052"/>
<stop offset="0.69" stop-color="#DBB640"/>
<stop offset="0.74" stop-color="#D2AA38"/>
<stop offset="0.79" stop-color="#C69930"/>
<stop offset="0.84" stop-color="#C1932D"/>
<stop offset="0.85" stop-color="#C59833"/>
<stop offset="0.88" stop-color="#D2A744"/>
<stop offset="0.9" stop-color="#EAC565"/>
<stop offset="0.93" stop-color="#DCB755"/>
<stop offset="0.95" stop-color="#D5AF4C"/>
<stop offset="0.97" stop-color="#CBA542"/>
</linearGradient>
</defs>
<path fill-rule="evenodd" clip-rule="evenodd" d="M18.3521 2.22857H18.1953V1.51722C18.1953 0.792709 17.6079 0.205322 16.8835 0.205322C16.1576 0.205322 15.5703 0.792709 15.5703 1.51722V2.22857H13.6153V1.51722C13.6153 0.792709 13.028 0.205322 12.3034 0.205322C11.5782 0.205322 10.9909 0.792709 10.9909 1.51722V2.22857H9.02216V1.51722C9.02216 0.792709 8.43482 0.205322 7.71031 0.205322C6.98514 0.205322 6.39714 0.792709 6.39714 1.51722V2.22857H4.42906V1.51722C4.42906 0.792709 3.84163 0.205322 3.1165 0.205322C2.39204 0.205322 1.8047 0.792709 1.8047 1.51722V2.22857H1.64718C0.737665 2.22857 0 2.96558 0 3.8751L0.0131554 16.8348C0.0131554 18.4669 1.34075 19.7945 2.97289 19.7945H17.0272C18.6593 19.7945 19.9856 18.4669 19.9856 16.8348L20 3.8751C20 2.96558 19.2624 2.22857 18.3521 2.22857ZM18.6743 16.8348C18.6743 17.7444 17.9361 18.4827 17.0272 18.4827H2.97289C2.0639 18.4827 1.32567 17.7444 1.32567 16.8348V5.71395H18.6743V16.8348ZM3.58391 11.6335H6.37561C6.7451 11.6335 7.04429 11.3343 7.04429 10.9648V8.17244C7.04429 7.80295 6.74505 7.50437 6.37561 7.50437H3.58391C3.21446 7.50437 2.91518 7.803 2.91518 8.17244V10.9648C2.91522 11.3343 3.21446 11.6335 3.58391 11.6335ZM6.37561 16.7011H3.58391C3.21446 16.7011 2.91522 16.4018 2.91518 16.0329V13.24C2.91518 12.8712 3.21446 12.5719 3.58391 12.5719H6.37561C6.74505 12.5719 7.04429 12.8712 7.04429 13.24V16.0329C7.04429 16.4018 6.7451 16.7011 6.37561 16.7011ZM8.65112 16.701H11.4435C11.8123 16.701 12.1122 16.4018 12.1122 16.0329V13.24C12.1122 12.8712 11.8123 12.5719 11.4435 12.5719H8.65112C8.28167 12.5719 7.983 12.8712 7.983 13.24V16.0329C7.98305 16.4018 8.28167 16.701 8.65112 16.701ZM16.4937 11.6335H13.702C13.3325 11.6335 13.0333 11.3343 13.0333 10.9648V8.17244C13.0333 7.803 13.3325 7.50437 13.702 7.50437H16.4937C16.8638 7.50437 17.1624 7.80295 17.1624 8.17244V10.9648C17.1624 11.3343 16.8638 11.6335 16.4937 11.6335ZM13.9363 8.31873C13.8878 8.31873 13.849 8.35881 13.849 8.40669V10.7305C13.849 10.779 13.8877 10.8178 13.9363 10.8178H16.2594C16.3079 10.8178 16.3473 10.779 16.3473 10.7305V8.40669C16.3473 8.35881 16.3079 8.31873 16.2594 8.31873H13.9363ZM13.702 16.7011H16.4937C16.8638 16.7011 17.1624 16.4018 17.1624 16.0329V13.24C17.1624 12.8712 16.8638 12.5719 16.4937 12.5719H13.702C13.3325 12.5719 13.0333 12.8712 13.0333 13.24V16.0329C13.0333 16.4018 13.3325 16.7011 13.702 16.7011ZM11.4257 11.6335H8.63405C8.2639 11.6335 7.96536 11.3342 7.96536 10.9647V8.17237C7.96536 7.80292 8.2639 7.5043 8.63405 7.5043H11.4257C11.7946 7.5043 12.0945 7.80288 12.0945 8.17237V10.9647C12.0945 11.3342 11.7945 11.6335 11.4257 11.6335Z" fill="url(#paint0_linear_639_21741)"/>
</svg>
