<svg width="20" height="20" viewBox="0 0 20 20" fill="none" xmlns="http://www.w3.org/2000/svg">
<defs>
<linearGradient id="paint0_linear_639_21724" x1="-12.2619" y1="-2.35012" x2="24.6437" y2="11.7474" gradientUnits="userSpaceOnUse">
<stop stop-color="#8A4026"/>
<stop offset="0.01" stop-color="#966D32"/>
<stop offset="0.03" stop-color="#A78041"/>
<stop offset="0.04" stop-color="#BA9653"/>
<stop offset="0.08" stop-color="#D8B870"/>
<stop offset="0.09" stop-color="#E4C67B"/>
<stop offset="0.12" stop-color="#DBB565"/>
<stop offset="0.13" stop-color="#D9B160"/>
<stop offset="0.16" stop-color="#D2A550"/>
<stop offset="0.18" stop-color="#D0A14B"/>
<stop offset="0.21" stop-color="#D5A750"/>
<stop offset="0.24" stop-color="#DDB258"/>
<stop offset="0.27" stop-color="#E4BD61"/>
<stop offset="0.31" stop-color="#F4D576"/>
<stop offset="0.37" stop-color="#F8E881"/>
<stop offset="0.4" stop-color="#F2DF7B"/>
<stop offset="0.45" stop-color="#E7C969"/>
<stop offset="0.48" stop-color="#E3C263"/>
<stop offset="0.54" stop-color="#F0D35A"/>
<stop offset="0.58" stop-color="#F9DF58"/>
<stop offset="0.62" stop-color="#EFD052"/>
<stop offset="0.69" stop-color="#DBB640"/>
<stop offset="0.74" stop-color="#D2AA38"/>
<stop offset="0.79" stop-color="#C69930"/>
<stop offset="0.84" stop-color="#C1932D"/>
<stop offset="0.85" stop-color="#C59833"/>
<stop offset="0.88" stop-color="#D2A744"/>
<stop offset="0.9" stop-color="#EAC565"/>
<stop offset="0.93" stop-color="#DCB755"/>
<stop offset="0.95" stop-color="#D5AF4C"/>
<stop offset="0.97" stop-color="#CBA542"/>
</linearGradient>
</defs>
<path fill-rule="evenodd" clip-rule="evenodd" d="M10 0.5C14.2447 0.5 17.6905 3.94579 17.6905 8.19048C17.6905 10.4243 16.5003 12.6912 15.0504 14.598C12.9278 17.3896 10.2742 19.4077 10.2742 19.4077H10.2737C10.1122 19.5308 9.88786 19.5308 9.72635 19.4077H9.72591C9.72591 19.4077 7.07224 17.3896 4.94966 14.598C3.49979 12.6912 2.30957 10.4243 2.30957 8.19048C2.30957 3.94579 5.75536 0.5 10 0.5ZM10 5.02381C8.2525 5.02381 6.83338 6.44293 6.83338 8.19048C6.83338 9.93802 8.2525 11.3571 10 11.3571C11.7476 11.3571 13.1667 9.93802 13.1667 8.19048C13.1667 6.44293 11.7476 5.02381 10 5.02381Z" fill="url(#paint0_linear_639_21724)"/>
</svg>
