<svg width="24" height="24" viewBox="0 0 24 24" fill="none" xmlns="http://www.w3.org/2000/svg">
<defs>
<linearGradient id="paint0_linear_6045_4537" x1="-20.9494" y1="2.804" x2="15.7759" y2="32.5396" gradientUnits="userSpaceOnUse">
<stop stop-color="#8A4026"/>
<stop offset="0.01" stop-color="#966D32"/>
<stop offset="0.03" stop-color="#A78041"/>
<stop offset="0.04" stop-color="#BA9653"/>
<stop offset="0.08" stop-color="#D8B870"/>
<stop offset="0.09" stop-color="#E4C67B"/>
<stop offset="0.12" stop-color="#DBB565"/>
<stop offset="0.13" stop-color="#D9B160"/>
<stop offset="0.16" stop-color="#D2A550"/>
<stop offset="0.18" stop-color="#D0A14B"/>
<stop offset="0.21" stop-color="#D5A750"/>
<stop offset="0.24" stop-color="#DDB258"/>
<stop offset="0.27" stop-color="#E4BD61"/>
<stop offset="0.31" stop-color="#F4D576"/>
<stop offset="0.37" stop-color="#F8E881"/>
<stop offset="0.4" stop-color="#F2DF7B"/>
<stop offset="0.45" stop-color="#E7C969"/>
<stop offset="0.48" stop-color="#E3C263"/>
<stop offset="0.54" stop-color="#F0D35A"/>
<stop offset="0.58" stop-color="#F9DF58"/>
<stop offset="0.62" stop-color="#EFD052"/>
<stop offset="0.69" stop-color="#DBB640"/>
<stop offset="0.74" stop-color="#D2AA38"/>
<stop offset="0.79" stop-color="#C69930"/>
<stop offset="0.84" stop-color="#C1932D"/>
<stop offset="0.85" stop-color="#C59833"/>
<stop offset="0.88" stop-color="#D2A744"/>
<stop offset="0.9" stop-color="#EAC565"/>
<stop offset="0.93" stop-color="#DCB755"/>
<stop offset="0.95" stop-color="#D5AF4C"/>
<stop offset="0.97" stop-color="#CBA542"/>
</linearGradient>
<linearGradient id="paint1_linear_6045_4537" x1="-0.543891" y1="-1.43573" x2="24.6022" y2="14.0286" gradientUnits="userSpaceOnUse">
<stop stop-color="#8A4026"/>
<stop offset="0.01" stop-color="#966D32"/>
<stop offset="0.03" stop-color="#A78041"/>
<stop offset="0.04" stop-color="#BA9653"/>
<stop offset="0.08" stop-color="#D8B870"/>
<stop offset="0.09" stop-color="#E4C67B"/>
<stop offset="0.12" stop-color="#DBB565"/>
<stop offset="0.13" stop-color="#D9B160"/>
<stop offset="0.16" stop-color="#D2A550"/>
<stop offset="0.18" stop-color="#D0A14B"/>
<stop offset="0.21" stop-color="#D5A750"/>
<stop offset="0.24" stop-color="#DDB258"/>
<stop offset="0.27" stop-color="#E4BD61"/>
<stop offset="0.31" stop-color="#F4D576"/>
<stop offset="0.37" stop-color="#F8E881"/>
<stop offset="0.4" stop-color="#F2DF7B"/>
<stop offset="0.45" stop-color="#E7C969"/>
<stop offset="0.48" stop-color="#E3C263"/>
<stop offset="0.54" stop-color="#F0D35A"/>
<stop offset="0.58" stop-color="#F9DF58"/>
<stop offset="0.62" stop-color="#EFD052"/>
<stop offset="0.69" stop-color="#DBB640"/>
<stop offset="0.74" stop-color="#D2AA38"/>
<stop offset="0.79" stop-color="#C69930"/>
<stop offset="0.84" stop-color="#C1932D"/>
<stop offset="0.85" stop-color="#C59833"/>
<stop offset="0.88" stop-color="#D2A744"/>
<stop offset="0.9" stop-color="#EAC565"/>
<stop offset="0.93" stop-color="#DCB755"/>
<stop offset="0.95" stop-color="#D5AF4C"/>
<stop offset="0.97" stop-color="#CBA542"/>
</linearGradient>
<linearGradient id="paint2_linear_6045_4537" x1="10.6811" y1="4.17793" x2="19.7923" y2="9.44315" gradientUnits="userSpaceOnUse">
<stop stop-color="#8A4026"/>
<stop offset="0.01" stop-color="#966D32"/>
<stop offset="0.03" stop-color="#A78041"/>
<stop offset="0.04" stop-color="#BA9653"/>
<stop offset="0.08" stop-color="#D8B870"/>
<stop offset="0.09" stop-color="#E4C67B"/>
<stop offset="0.12" stop-color="#DBB565"/>
<stop offset="0.13" stop-color="#D9B160"/>
<stop offset="0.16" stop-color="#D2A550"/>
<stop offset="0.18" stop-color="#D0A14B"/>
<stop offset="0.21" stop-color="#D5A750"/>
<stop offset="0.24" stop-color="#DDB258"/>
<stop offset="0.27" stop-color="#E4BD61"/>
<stop offset="0.31" stop-color="#F4D576"/>
<stop offset="0.37" stop-color="#F8E881"/>
<stop offset="0.4" stop-color="#F2DF7B"/>
<stop offset="0.45" stop-color="#E7C969"/>
<stop offset="0.48" stop-color="#E3C263"/>
<stop offset="0.54" stop-color="#F0D35A"/>
<stop offset="0.58" stop-color="#F9DF58"/>
<stop offset="0.62" stop-color="#EFD052"/>
<stop offset="0.69" stop-color="#DBB640"/>
<stop offset="0.74" stop-color="#D2AA38"/>
<stop offset="0.79" stop-color="#C69930"/>
<stop offset="0.84" stop-color="#C1932D"/>
<stop offset="0.85" stop-color="#C59833"/>
<stop offset="0.88" stop-color="#D2A744"/>
<stop offset="0.9" stop-color="#EAC565"/>
<stop offset="0.93" stop-color="#DCB755"/>
<stop offset="0.95" stop-color="#D5AF4C"/>
<stop offset="0.97" stop-color="#CBA542"/>
</linearGradient>
<linearGradient id="paint3_linear_6045_4537" x1="-0.96313" y1="18.7286" x2="7.72456" y2="21.9532" gradientUnits="userSpaceOnUse">
<stop stop-color="#8A4026"/>
<stop offset="0.01" stop-color="#966D32"/>
<stop offset="0.03" stop-color="#A78041"/>
<stop offset="0.04" stop-color="#BA9653"/>
<stop offset="0.08" stop-color="#D8B870"/>
<stop offset="0.09" stop-color="#E4C67B"/>
<stop offset="0.12" stop-color="#DBB565"/>
<stop offset="0.13" stop-color="#D9B160"/>
<stop offset="0.16" stop-color="#D2A550"/>
<stop offset="0.18" stop-color="#D0A14B"/>
<stop offset="0.21" stop-color="#D5A750"/>
<stop offset="0.24" stop-color="#DDB258"/>
<stop offset="0.27" stop-color="#E4BD61"/>
<stop offset="0.31" stop-color="#F4D576"/>
<stop offset="0.37" stop-color="#F8E881"/>
<stop offset="0.4" stop-color="#F2DF7B"/>
<stop offset="0.45" stop-color="#E7C969"/>
<stop offset="0.48" stop-color="#E3C263"/>
<stop offset="0.54" stop-color="#F0D35A"/>
<stop offset="0.58" stop-color="#F9DF58"/>
<stop offset="0.62" stop-color="#EFD052"/>
<stop offset="0.69" stop-color="#DBB640"/>
<stop offset="0.74" stop-color="#D2AA38"/>
<stop offset="0.79" stop-color="#C69930"/>
<stop offset="0.84" stop-color="#C1932D"/>
<stop offset="0.85" stop-color="#C59833"/>
<stop offset="0.88" stop-color="#D2A744"/>
<stop offset="0.9" stop-color="#EAC565"/>
<stop offset="0.93" stop-color="#DCB755"/>
<stop offset="0.95" stop-color="#D5AF4C"/>
<stop offset="0.97" stop-color="#CBA542"/>
</linearGradient>
<linearGradient id="paint4_linear_6045_4537" x1="3.96664" y1="18.7285" x2="12.6537" y2="21.9521" gradientUnits="userSpaceOnUse">
<stop stop-color="#8A4026"/>
<stop offset="0.01" stop-color="#966D32"/>
<stop offset="0.03" stop-color="#A78041"/>
<stop offset="0.04" stop-color="#BA9653"/>
<stop offset="0.08" stop-color="#D8B870"/>
<stop offset="0.09" stop-color="#E4C67B"/>
<stop offset="0.12" stop-color="#DBB565"/>
<stop offset="0.13" stop-color="#D9B160"/>
<stop offset="0.16" stop-color="#D2A550"/>
<stop offset="0.18" stop-color="#D0A14B"/>
<stop offset="0.21" stop-color="#D5A750"/>
<stop offset="0.24" stop-color="#DDB258"/>
<stop offset="0.27" stop-color="#E4BD61"/>
<stop offset="0.31" stop-color="#F4D576"/>
<stop offset="0.37" stop-color="#F8E881"/>
<stop offset="0.4" stop-color="#F2DF7B"/>
<stop offset="0.45" stop-color="#E7C969"/>
<stop offset="0.48" stop-color="#E3C263"/>
<stop offset="0.54" stop-color="#F0D35A"/>
<stop offset="0.58" stop-color="#F9DF58"/>
<stop offset="0.62" stop-color="#EFD052"/>
<stop offset="0.69" stop-color="#DBB640"/>
<stop offset="0.74" stop-color="#D2AA38"/>
<stop offset="0.79" stop-color="#C69930"/>
<stop offset="0.84" stop-color="#C1932D"/>
<stop offset="0.85" stop-color="#C59833"/>
<stop offset="0.88" stop-color="#D2A744"/>
<stop offset="0.9" stop-color="#EAC565"/>
<stop offset="0.93" stop-color="#DCB755"/>
<stop offset="0.95" stop-color="#D5AF4C"/>
<stop offset="0.97" stop-color="#CBA542"/>
</linearGradient>
<linearGradient id="paint5_linear_6045_4537" x1="8.89725" y1="18.7283" x2="17.5828" y2="21.9504" gradientUnits="userSpaceOnUse">
<stop stop-color="#8A4026"/>
<stop offset="0.01" stop-color="#966D32"/>
<stop offset="0.03" stop-color="#A78041"/>
<stop offset="0.04" stop-color="#BA9653"/>
<stop offset="0.08" stop-color="#D8B870"/>
<stop offset="0.09" stop-color="#E4C67B"/>
<stop offset="0.12" stop-color="#DBB565"/>
<stop offset="0.13" stop-color="#D9B160"/>
<stop offset="0.16" stop-color="#D2A550"/>
<stop offset="0.18" stop-color="#D0A14B"/>
<stop offset="0.21" stop-color="#D5A750"/>
<stop offset="0.24" stop-color="#DDB258"/>
<stop offset="0.27" stop-color="#E4BD61"/>
<stop offset="0.31" stop-color="#F4D576"/>
<stop offset="0.37" stop-color="#F8E881"/>
<stop offset="0.4" stop-color="#F2DF7B"/>
<stop offset="0.45" stop-color="#E7C969"/>
<stop offset="0.48" stop-color="#E3C263"/>
<stop offset="0.54" stop-color="#F0D35A"/>
<stop offset="0.58" stop-color="#F9DF58"/>
<stop offset="0.62" stop-color="#EFD052"/>
<stop offset="0.69" stop-color="#DBB640"/>
<stop offset="0.74" stop-color="#D2AA38"/>
<stop offset="0.79" stop-color="#C69930"/>
<stop offset="0.84" stop-color="#C1932D"/>
<stop offset="0.85" stop-color="#C59833"/>
<stop offset="0.88" stop-color="#D2A744"/>
<stop offset="0.9" stop-color="#EAC565"/>
<stop offset="0.93" stop-color="#DCB755"/>
<stop offset="0.95" stop-color="#D5AF4C"/>
<stop offset="0.97" stop-color="#CBA542"/>
</linearGradient>
<clipPath id="clip0_6045_4537">
<rect width="24" height="24" fill="white"/>
</clipPath>
</defs>
<g clip-path="url(#clip0_6045_4537)">
<path d="M17.7455 8.90156C16.2056 8.90156 14.8083 9.68812 14.0081 11.0058C13.9008 11.183 13.6697 11.2392 13.493 11.1314C13.3158 11.0241 13.2595 10.7934 13.3673 10.6162C14.0334 9.51984 15.0525 8.73796 16.2337 8.37656C15.2377 6.18375 13.02 4.73718 10.5877 4.73718C7.54969 4.73718 4.91578 6.99468 4.46063 9.98859C4.43062 10.1864 4.25016 10.3261 4.05094 10.305C3.92859 10.2923 3.8025 10.2858 3.67547 10.2858C1.64859 10.2858 0 11.932 0 13.9552C0 15.9783 1.64859 17.6245 3.67453 17.6245H17.7455C20.1539 17.6245 22.1133 15.668 22.1133 13.2628C22.1133 10.8581 20.1539 8.90156 17.7455 8.90156Z" fill="url(#paint0_linear_6045_4537)"/>
<path d="M23.6672 6.92345C22.3215 6.77017 21.3066 5.63298 21.3066 4.2783C21.3066 3.67595 21.503 3.1083 21.8747 2.63673C21.9924 2.4872 21.9797 2.27345 21.8447 2.13892C21.7097 2.00439 21.496 1.99267 21.3469 2.1108C20.2866 2.95314 18.7632 2.86548 17.8032 1.90689C17.3776 1.48173 17.1146 0.941733 17.0429 0.345015C17.0204 0.156577 16.8605 0.0150146 16.6707 0.0150146C16.6702 0.0150146 16.6697 0.0150146 16.6697 0.0150146C16.4794 0.0154834 16.3201 0.158452 16.2985 0.347358C16.1452 1.69126 15.0062 2.7047 13.6496 2.7047C13.0454 2.7047 12.4763 2.5083 12.0038 2.13705C11.8543 2.01939 11.6401 2.03251 11.506 2.16751C11.3719 2.30251 11.3602 2.51673 11.4788 2.66533C11.8177 3.09095 12.0137 3.60611 12.0493 4.14048C12.8246 4.30642 13.5652 4.60455 14.2454 5.02689C14.8726 4.35611 15.7496 3.96892 16.6899 3.96892C18.5372 3.96892 20.0401 5.46986 20.0401 7.31533C20.0401 7.75126 19.9557 8.17876 19.793 8.57767C20.3982 8.84251 20.9424 9.22126 21.399 9.68626C21.5119 9.21376 21.7529 8.78017 22.1054 8.42861C22.5319 8.00251 23.0733 7.73955 23.671 7.66783C23.8599 7.64533 24.0019 7.48455 24.0015 7.29423C23.9996 7.10486 23.8566 6.94501 23.6672 6.92345Z" fill="url(#paint1_linear_6045_4537)"/>
<path d="M16.9791 8.20827C17.2303 8.17124 17.4863 8.15108 17.7455 8.15108C18.2081 8.15108 18.6567 8.21295 19.0838 8.32873C19.2188 8.00998 19.2891 7.66639 19.2891 7.31577C19.2891 5.8842 18.1228 4.71936 16.6889 4.71936C15.9966 4.71936 15.3492 4.9903 14.8688 5.46327C15.7964 6.18936 16.5188 7.12827 16.9791 8.20827Z" fill="url(#paint2_linear_6045_4537)"/>
<path d="M5.98131 19.7902C5.98178 19.6556 5.91006 19.5314 5.79381 19.4644C5.67756 19.3974 5.53412 19.3974 5.41787 19.4649C5.26037 19.5563 5.0574 19.6599 4.84271 19.7691C4.0599 20.1675 3.08584 20.6639 2.67756 21.3703C2.44412 21.7735 2.38225 22.2436 2.50271 22.6936C2.62318 23.1436 2.91193 23.5191 3.31599 23.7516C3.59021 23.9096 3.88975 23.9846 4.18553 23.9846C4.78881 23.9846 5.37709 23.6724 5.70006 23.1141C6.10834 22.4077 6.05162 21.3178 6.00568 20.4417C5.99256 20.2008 5.98084 19.973 5.98131 19.7902Z" fill="url(#paint3_linear_6045_4537)"/>
<path d="M10.9106 19.7902C10.9111 19.6556 10.8394 19.5314 10.7231 19.4644C10.6069 19.3974 10.4634 19.3974 10.3472 19.4649C10.1897 19.5563 9.98672 19.6599 9.77204 19.7691C8.98922 20.1675 8.01516 20.6639 7.60688 21.3703C7.37344 21.7735 7.31157 22.2436 7.43204 22.6936C7.5525 23.1436 7.84125 23.5191 8.24485 23.7516C8.51907 23.91 8.8186 23.985 9.11485 23.985C9.71813 23.985 10.3059 23.6724 10.6289 23.1141C11.0372 22.4077 10.9805 21.3178 10.9345 20.4417C10.9219 20.2008 10.9102 19.973 10.9106 19.7902Z" fill="url(#paint4_linear_6045_4537)"/>
<path d="M15.8404 19.7906C15.8409 19.6561 15.7697 19.5318 15.6534 19.4643C15.5372 19.3968 15.3937 19.3973 15.277 19.4648C15.1195 19.5562 14.9165 19.6598 14.7018 19.769C13.919 20.1675 12.945 20.6639 12.5367 21.3703C12.3033 21.7734 12.2414 22.2436 12.3618 22.6936C12.4823 23.1436 12.7711 23.519 13.1751 23.7515C13.4493 23.9095 13.7489 23.985 14.0447 23.985C14.6479 23.985 15.2358 23.6723 15.5592 23.1136C15.9656 22.409 15.9093 21.3215 15.8639 20.4478C15.8512 20.204 15.8395 19.9743 15.8404 19.7906Z" fill="url(#paint5_linear_6045_4537)"/>
</g>
</svg>
