<svg width="24" height="24" viewBox="0 0 24 24" fill="none" xmlns="http://www.w3.org/2000/svg">
<defs>
<linearGradient id="paint0_linear_116_12180" x1="-15.7894" y1="-0.480935" x2="27.3905" y2="19.8909" gradientUnits="userSpaceOnUse">
<stop stop-color="#8A4026"/>
<stop offset="0.01" stop-color="#966D32"/>
<stop offset="0.03" stop-color="#A78041"/>
<stop offset="0.04" stop-color="#BA9653"/>
<stop offset="0.08" stop-color="#D8B870"/>
<stop offset="0.09" stop-color="#E4C67B"/>
<stop offset="0.12" stop-color="#DBB565"/>
<stop offset="0.13" stop-color="#D9B160"/>
<stop offset="0.16" stop-color="#D2A550"/>
<stop offset="0.18" stop-color="#D0A14B"/>
<stop offset="0.21" stop-color="#D5A750"/>
<stop offset="0.24" stop-color="#DDB258"/>
<stop offset="0.27" stop-color="#E4BD61"/>
<stop offset="0.31" stop-color="#F4D576"/>
<stop offset="0.37" stop-color="#F8E881"/>
<stop offset="0.4" stop-color="#F2DF7B"/>
<stop offset="0.45" stop-color="#E7C969"/>
<stop offset="0.48" stop-color="#E3C263"/>
<stop offset="0.54" stop-color="#F0D35A"/>
<stop offset="0.58" stop-color="#F9DF58"/>
<stop offset="0.62" stop-color="#EFD052"/>
<stop offset="0.69" stop-color="#DBB640"/>
<stop offset="0.74" stop-color="#D2AA38"/>
<stop offset="0.79" stop-color="#C69930"/>
<stop offset="0.84" stop-color="#C1932D"/>
<stop offset="0.85" stop-color="#C59833"/>
<stop offset="0.88" stop-color="#D2A744"/>
<stop offset="0.9" stop-color="#EAC565"/>
<stop offset="0.93" stop-color="#DCB755"/>
<stop offset="0.95" stop-color="#D5AF4C"/>
<stop offset="0.97" stop-color="#CBA542"/>
</linearGradient>
</defs>
<path d="M14.4336 15.4238C14.4939 15.4929 14.5399 15.5731 14.5691 15.66C14.5983 15.7469 14.6101 15.8387 14.6038 15.9301C14.5975 16.0216 14.5733 16.1109 14.5324 16.193C14.4916 16.275 14.435 16.3482 14.3658 16.4084C14.2966 16.4685 14.2163 16.5144 14.1294 16.5435C14.0424 16.5726 13.9506 16.5842 13.8592 16.5778C13.7678 16.5713 13.6785 16.5469 13.5965 16.506C13.5145 16.465 13.4414 16.4082 13.3814 16.339C13.3205 16.2708 13.2739 16.191 13.2445 16.1045C13.215 16.0179 13.2033 15.9263 13.21 15.8351C13.2193 15.6972 13.2694 15.5652 13.3538 15.4557C13.4382 15.3463 13.5532 15.2643 13.6843 15.2203C13.8153 15.1762 13.9564 15.1721 14.0898 15.2083C14.2232 15.2445 14.3429 15.3195 14.4336 15.4238ZM20.6033 8.53437C21.1242 9.81344 21.3492 11.1938 21.2614 12.5721C21.1149 14.8228 20.1565 16.944 18.5641 18.5414C16.9717 20.1389 14.8536 21.104 12.6033 21.2576C11.2153 21.3511 9.8242 21.1284 8.53474 20.6063C8.77125 20.459 9.01459 20.3047 9.25796 20.1436C9.58701 19.9242 10.1731 19.5027 10.5399 19.2387C10.5791 19.2091 10.6115 19.1715 10.635 19.1283C10.6585 19.0852 10.6725 19.0375 10.6761 18.9885C10.6796 18.9395 10.6727 18.8903 10.6557 18.8442C10.6387 18.7981 10.6121 18.7561 10.5776 18.7211C10.5195 18.6645 10.4431 18.6303 10.3622 18.6246C10.2812 18.619 10.2008 18.6422 10.1354 18.6903C9.56645 19.1119 9.00775 19.4958 8.47305 19.8317C8.29138 19.9482 7.8355 20.2259 7.78067 20.2567H7.77724C6.58104 20.9491 5.16542 21.6003 4.06516 21.6003C3.84196 21.6126 3.61857 21.5798 3.40834 21.5038C3.1981 21.4278 3.00533 21.3103 2.84153 21.1582C1.82696 20.1436 2.74555 17.9465 3.74297 16.2224C3.6196 15.9894 3.50989 15.7494 3.4105 15.5061C2.88472 14.2233 2.65508 12.8385 2.73869 11.4547C2.87916 9.18894 3.84258 7.05259 5.44777 5.4474C7.05295 3.84221 9.1893 2.87879 11.455 2.73832C12.8388 2.65471 14.2237 2.88434 15.5064 3.41011C15.7498 3.5095 15.9897 3.61919 16.2228 3.74258C17.9469 2.74516 20.144 1.82657 21.1585 2.84114C22.1731 3.85571 21.2545 6.05278 20.2571 7.77685C20.2262 7.8317 19.952 8.29099 19.832 8.47266V8.47607C18.6292 10.33 17.2557 12.0674 15.7292 13.6654C15.6683 13.7292 15.634 13.8138 15.6333 13.9019C15.6337 13.9908 15.6695 14.0759 15.7327 14.1384C15.928 14.135 16.0343 14.135 16.2297 14.1316C17.6691 12.6211 18.9786 10.9918 20.144 9.26103C20.3051 9.01422 20.4593 8.77429 20.6033 8.53437ZM17.5596 4.57552C18.2682 5.10588 18.8972 5.73493 19.4276 6.44353C20.3188 4.70918 20.2639 3.9174 20.1851 3.80431C20.0788 3.73576 19.2939 3.6809 17.5596 4.57552ZM6.44048 19.4238C5.7346 18.8927 5.10692 18.2651 4.57587 17.5592C3.68125 19.2936 3.73611 20.0819 3.81494 20.195C3.91778 20.2636 4.70612 20.3184 6.44048 19.4238ZM14.9477 14.9748C14.7141 14.7064 14.386 14.5384 14.0316 14.5058C13.6773 14.4732 13.324 14.5786 13.0454 14.8L10.3034 15.9208C10.2294 15.9508 10.1682 16.0055 10.1303 16.0757C10.0923 16.1459 10.08 16.2271 10.0954 16.3053C10.1108 16.3836 10.153 16.4541 10.2147 16.5046C10.2764 16.5552 10.3538 16.5827 10.4336 16.5823C10.4785 16.5832 10.5231 16.5738 10.5639 16.5549L12.5313 15.7495C12.5058 16.009 12.5545 16.2706 12.6718 16.5035L11.5956 17.4392C11.5277 17.499 11.4862 17.5832 11.4801 17.6734C11.474 17.7636 11.5039 17.8526 11.5631 17.9209C11.6224 17.9892 11.7063 18.0314 11.7965 18.0381C11.8866 18.0448 11.9758 18.0156 12.0446 17.9568L13.1209 17.0176C13.3344 17.1675 13.5868 17.252 13.8475 17.261L12.7781 19.0982C12.7552 19.1371 12.7403 19.1801 12.7341 19.2248C12.7279 19.2695 12.7306 19.315 12.7421 19.3586C12.7535 19.4023 12.7735 19.4432 12.8009 19.4791C12.8282 19.515 12.8624 19.5451 12.9015 19.5678C12.9535 19.5982 13.0125 19.6148 13.0728 19.6157C13.1332 19.6158 13.1925 19.5999 13.2448 19.5699C13.2971 19.5398 13.3406 19.4965 13.371 19.4444L14.8654 16.8771C15.1208 16.6313 15.2718 16.2966 15.2871 15.9424C15.3025 15.5883 15.1809 15.2418 14.9477 14.9748Z" fill="url(#paint0_linear_116_12180)"/>
</svg>
