<svg width="24" height="24" viewBox="0 0 24 24" fill="none" xmlns="http://www.w3.org/2000/svg">
<defs>
<linearGradient id="paint0_linear_281_4813" x1="-22.7369" y1="-3.60013" x2="31.2348" y2="21.8676" gradientUnits="userSpaceOnUse">
<stop stop-color="#8A4026"/>
<stop offset="0.01" stop-color="#966D32"/>
<stop offset="0.03" stop-color="#A78041"/>
<stop offset="0.04" stop-color="#BA9653"/>
<stop offset="0.08" stop-color="#D8B870"/>
<stop offset="0.09" stop-color="#E4C67B"/>
<stop offset="0.12" stop-color="#DBB565"/>
<stop offset="0.13" stop-color="#D9B160"/>
<stop offset="0.16" stop-color="#D2A550"/>
<stop offset="0.18" stop-color="#D0A14B"/>
<stop offset="0.21" stop-color="#D5A750"/>
<stop offset="0.24" stop-color="#DDB258"/>
<stop offset="0.27" stop-color="#E4BD61"/>
<stop offset="0.31" stop-color="#F4D576"/>
<stop offset="0.37" stop-color="#F8E881"/>
<stop offset="0.4" stop-color="#F2DF7B"/>
<stop offset="0.45" stop-color="#E7C969"/>
<stop offset="0.48" stop-color="#E3C263"/>
<stop offset="0.54" stop-color="#F0D35A"/>
<stop offset="0.58" stop-color="#F9DF58"/>
<stop offset="0.62" stop-color="#EFD052"/>
<stop offset="0.69" stop-color="#DBB640"/>
<stop offset="0.74" stop-color="#D2AA38"/>
<stop offset="0.79" stop-color="#C69930"/>
<stop offset="0.84" stop-color="#C1932D"/>
<stop offset="0.85" stop-color="#C59833"/>
<stop offset="0.88" stop-color="#D2A744"/>
<stop offset="0.9" stop-color="#EAC565"/>
<stop offset="0.93" stop-color="#DCB755"/>
<stop offset="0.95" stop-color="#D5AF4C"/>
<stop offset="0.97" stop-color="#CBA542"/>
</linearGradient>
</defs>
<path fill-rule="evenodd" clip-rule="evenodd" d="M17.0733 13.4494L23.6459 17.2099C23.9671 17.3937 24.0909 17.7949 23.9291 18.1277L21.2651 23.6043C21.1656 23.8088 20.9734 23.9525 20.7492 23.9902C20.7104 23.9967 20.6714 23.9999 20.6328 23.9999C20.4479 23.9999 20.2686 23.9269 20.1357 23.7939L13.5631 17.221C13.2885 16.9464 13.2885 16.5012 13.5631 16.2266L14.3979 15.3917L13.1655 14.1593C12.8422 14.2993 12.4909 14.3734 12.1281 14.3734C11.8348 14.3734 11.5491 14.3248 11.2796 14.2325C12.0957 15.7472 11.8657 17.6811 10.5882 18.9586C10.4563 19.0905 10.2775 19.1646 10.091 19.1646C9.90448 19.1646 9.72565 19.0905 9.59379 18.9586L7.76052 17.1253L7.29379 17.592C7.15649 17.7293 6.97649 17.798 6.79658 17.798C6.61668 17.798 6.43673 17.7293 6.29943 17.592C6.02484 17.3174 6.02484 16.8722 6.29938 16.5976L6.76616 16.1309L4.93279 14.2975C4.65825 14.0229 4.65825 13.5777 4.93279 13.3031C5.68809 12.5478 6.69233 12.1318 7.76047 12.1318C8.43453 12.1318 9.08295 12.2978 9.65961 12.6099C9.45082 11.9981 9.47562 11.3239 9.73311 10.7268L8.60895 9.60256L7.77416 10.4374C7.6423 10.5693 7.46347 10.6434 7.27696 10.6434C7.09044 10.6434 6.91161 10.5693 6.77976 10.4374L0.207152 3.86447C0.0463716 3.70369 -0.0267063 3.47508 0.0109342 3.25088C0.0485747 3.02668 0.19234 2.83444 0.396761 2.73502L5.87306 0.0709365C6.20591 -0.0909223 6.60721 0.0328741 6.79096 0.354061L10.5512 6.92695C10.7087 7.20224 10.6624 7.54897 10.4381 7.77327L9.60326 8.60821L10.5973 9.60233L13.8168 6.38259L17.5084 10.0741L14.2887 13.294L15.3921 14.3974L16.2269 13.5625C16.4512 13.3383 16.7979 13.2919 17.0733 13.4494ZM1.40625 17.0947C1.40625 20.0671 3.82434 22.4854 6.79655 22.4854C7.18491 22.4854 7.49963 22.8002 7.49963 23.1885C7.49963 23.5768 7.18481 23.8916 6.7965 23.8916C3.04889 23.8916 0 20.8425 0 17.0947C0 16.7064 0.314812 16.3916 0.703125 16.3916C1.09144 16.3916 1.40625 16.7064 1.40625 17.0947ZM6.79657 19.4385C5.50432 19.4385 4.453 18.3871 4.453 17.0947C4.453 16.7064 4.13819 16.3916 3.74988 16.3916C3.36157 16.3916 3.04675 16.7064 3.04675 17.0947C3.04675 19.1625 4.72891 20.8447 6.79657 20.8447C7.18488 20.8447 7.49969 20.53 7.49969 20.1416C7.49969 19.7533 7.18493 19.4385 6.79657 19.4385ZM18.8797 5.05658C19.8848 6.06177 19.8848 7.69738 18.8797 8.70256L18.5028 9.07953L14.8113 5.38803L15.1883 5.01097C15.6752 4.52403 16.3226 4.25586 17.0112 4.25586C17.6998 4.25586 18.3472 4.52398 18.8341 5.01097L18.8797 5.05658Z" fill="url(#paint0_linear_281_4813)"/>
</svg>
