<svg width="15" height="16" viewBox="0 0 15 16" fill="none" xmlns="http://www.w3.org/2000/svg">
<defs>
<linearGradient id="paint0_linear_1039_7368" x1="0" y1="0.501465" x2="16.6674" y2="2.66676" gradientUnits="userSpaceOnUse">
<stop stop-color="#E0D6AE"/>
<stop offset="0.5" stop-color="#E0D6AE"/>
<stop offset="1" stop-color="#C1A55E"/>
</linearGradient>
</defs>
<path d="M7.31414 1.15555C7.39438 1.00843 7.60562 1.00843 7.68586 1.15555L9.62255 4.7067C9.69615 4.84165 9.82651 4.93637 9.9776 4.96466L13.9534 5.7092C14.1181 5.74004 14.1834 5.94095 14.0683 6.06272L11.2894 9.00199C11.1838 9.11369 11.134 9.26694 11.1538 9.41938L11.6743 13.4307C11.6959 13.5969 11.525 13.721 11.3736 13.6492L7.71943 11.9146C7.58057 11.8487 7.41943 11.8487 7.28057 11.9146L3.62643 13.6492C3.47505 13.721 3.30414 13.5969 3.32571 13.4307L3.84621 9.41938C3.86599 9.26694 3.81619 9.11369 3.71059 9.00199L0.93171 6.06272C0.816585 5.94095 0.881864 5.74004 1.04658 5.7092L5.0224 4.96466C5.17349 4.93637 5.30385 4.84165 5.37745 4.7067L7.31414 1.15555Z" fill="#BD181B" stroke="url(#paint0_linear_1039_7368)" stroke-width="0.3"/>
</svg>
