<svg width="17" height="16" viewBox="0 0 17 16" fill="none" xmlns="http://www.w3.org/2000/svg">
<path fill-rule="evenodd" clip-rule="evenodd" d="M8.49992 14.6668C4.81992 14.6668 1.83325 11.6868 1.83325 8.00016C1.83325 4.32016 4.81992 1.3335 8.49992 1.3335C12.1866 1.3335 15.1666 4.32016 15.1666 8.00016C15.1666 11.6868 12.1866 14.6668 8.49992 14.6668ZM10.6266 10.4735C10.7066 10.5202 10.7933 10.5468 10.8866 10.5468C11.0533 10.5468 11.2199 10.4602 11.3133 10.3002C11.4533 10.0668 11.3799 9.76016 11.1399 9.6135L8.76658 8.20016V5.12016C8.76658 4.84016 8.53992 4.62016 8.26658 4.62016C7.99325 4.62016 7.76658 4.84016 7.76658 5.12016V8.48683C7.76658 8.66016 7.85992 8.82016 8.01325 8.9135L10.6266 10.4735Z" fill="white"/>
</svg>
