<svg width="24" height="24" viewBox="0 0 24 24" fill="none" xmlns="http://www.w3.org/2000/svg">
<defs>
<linearGradient id="paint0_linear_685_8718" x1="-11.0381" y1="12.0043" x2="28.1495" y2="12.0043" gradientUnits="userSpaceOnUse">
<stop stop-color="#8A4026"/>
<stop offset="0.01" stop-color="#966D32"/>
<stop offset="0.03" stop-color="#A78041"/>
<stop offset="0.04" stop-color="#BA9653"/>
<stop offset="0.08" stop-color="#D8B870"/>
<stop offset="0.09" stop-color="#E4C67B"/>
<stop offset="0.12" stop-color="#DBB565"/>
<stop offset="0.13" stop-color="#D9B160"/>
<stop offset="0.16" stop-color="#D2A550"/>
<stop offset="0.18" stop-color="#D0A14B"/>
<stop offset="0.21" stop-color="#D5A750"/>
<stop offset="0.24" stop-color="#DDB258"/>
<stop offset="0.27" stop-color="#E4BD61"/>
<stop offset="0.31" stop-color="#F4D576"/>
<stop offset="0.37" stop-color="#F8E881"/>
<stop offset="0.4" stop-color="#F2DF7B"/>
<stop offset="0.45" stop-color="#E7C969"/>
<stop offset="0.48" stop-color="#E3C263"/>
<stop offset="0.54" stop-color="#F0D35A"/>
<stop offset="0.58" stop-color="#F9DF58"/>
<stop offset="0.62" stop-color="#EFD052"/>
<stop offset="0.69" stop-color="#DBB640"/>
<stop offset="0.74" stop-color="#D2AA38"/>
<stop offset="0.79" stop-color="#C69930"/>
<stop offset="0.84" stop-color="#C1932D"/>
<stop offset="0.85" stop-color="#C59833"/>
<stop offset="0.88" stop-color="#D2A744"/>
<stop offset="0.9" stop-color="#EAC565"/>
<stop offset="0.93" stop-color="#DCB755"/>
<stop offset="0.95" stop-color="#D5AF4C"/>
<stop offset="0.97" stop-color="#CBA542"/>
</linearGradient>
</defs>
<path d="M7.66549 3.50024H16.3345C17.6642 3.50024 18.6864 3.96445 19.3798 4.70921C20.079 5.46002 20.5005 6.55764 20.5005 7.91624V16.0842C20.5005 17.4428 20.079 18.5404 19.3798 19.2912C18.6862 20.036 17.6638 20.5002 16.3335 20.5002H7.66549C6.33579 20.5002 5.31393 20.0361 4.6207 19.2914C3.92183 18.5406 3.50049 17.443 3.50049 16.0842V7.91624C3.50049 6.55847 3.92353 5.46072 4.62374 4.7095C5.3185 3.96412 6.34078 3.50024 7.66549 3.50024Z" stroke="url(#paint0_linear_685_8718)" stroke-width="1.5" stroke-linecap="round" stroke-linejoin="round"/>
</svg>
