<svg width="21" height="20" viewBox="0 0 21 20" fill="none" xmlns="http://www.w3.org/2000/svg">
<defs>
<linearGradient id="paint0_linear_1415_8635" x1="-9.76316" y1="0.899915" x2="21.7204" y2="15.756" gradientUnits="userSpaceOnUse">
<stop stop-color="#8A4026"/>
<stop offset="0.01" stop-color="#966D32"/>
<stop offset="0.03" stop-color="#A78041"/>
<stop offset="0.04" stop-color="#BA9653"/>
<stop offset="0.08" stop-color="#D8B870"/>
<stop offset="0.09" stop-color="#E4C67B"/>
<stop offset="0.12" stop-color="#DBB565"/>
<stop offset="0.13" stop-color="#D9B160"/>
<stop offset="0.16" stop-color="#D2A550"/>
<stop offset="0.18" stop-color="#D0A14B"/>
<stop offset="0.21" stop-color="#D5A750"/>
<stop offset="0.24" stop-color="#DDB258"/>
<stop offset="0.27" stop-color="#E4BD61"/>
<stop offset="0.31" stop-color="#F4D576"/>
<stop offset="0.37" stop-color="#F8E881"/>
<stop offset="0.4" stop-color="#F2DF7B"/>
<stop offset="0.45" stop-color="#E7C969"/>
<stop offset="0.48" stop-color="#E3C263"/>
<stop offset="0.54" stop-color="#F0D35A"/>
<stop offset="0.58" stop-color="#F9DF58"/>
<stop offset="0.62" stop-color="#EFD052"/>
<stop offset="0.69" stop-color="#DBB640"/>
<stop offset="0.74" stop-color="#D2AA38"/>
<stop offset="0.79" stop-color="#C69930"/>
<stop offset="0.84" stop-color="#C1932D"/>
<stop offset="0.85" stop-color="#C59833"/>
<stop offset="0.88" stop-color="#D2A744"/>
<stop offset="0.9" stop-color="#EAC565"/>
<stop offset="0.93" stop-color="#DCB755"/>
<stop offset="0.95" stop-color="#D5AF4C"/>
<stop offset="0.97" stop-color="#CBA542"/>
</linearGradient>
<linearGradient id="paint1_linear_1415_8635" x1="-18.4474" y1="-3.00012" x2="26.5291" y2="18.2229" gradientUnits="userSpaceOnUse">
<stop stop-color="#8A4026"/>
<stop offset="0.01" stop-color="#966D32"/>
<stop offset="0.03" stop-color="#A78041"/>
<stop offset="0.04" stop-color="#BA9653"/>
<stop offset="0.08" stop-color="#D8B870"/>
<stop offset="0.09" stop-color="#E4C67B"/>
<stop offset="0.12" stop-color="#DBB565"/>
<stop offset="0.13" stop-color="#D9B160"/>
<stop offset="0.16" stop-color="#D2A550"/>
<stop offset="0.18" stop-color="#D0A14B"/>
<stop offset="0.21" stop-color="#D5A750"/>
<stop offset="0.24" stop-color="#DDB258"/>
<stop offset="0.27" stop-color="#E4BD61"/>
<stop offset="0.31" stop-color="#F4D576"/>
<stop offset="0.37" stop-color="#F8E881"/>
<stop offset="0.4" stop-color="#F2DF7B"/>
<stop offset="0.45" stop-color="#E7C969"/>
<stop offset="0.48" stop-color="#E3C263"/>
<stop offset="0.54" stop-color="#F0D35A"/>
<stop offset="0.58" stop-color="#F9DF58"/>
<stop offset="0.62" stop-color="#EFD052"/>
<stop offset="0.69" stop-color="#DBB640"/>
<stop offset="0.74" stop-color="#D2AA38"/>
<stop offset="0.79" stop-color="#C69930"/>
<stop offset="0.84" stop-color="#C1932D"/>
<stop offset="0.85" stop-color="#C59833"/>
<stop offset="0.88" stop-color="#D2A744"/>
<stop offset="0.9" stop-color="#EAC565"/>
<stop offset="0.93" stop-color="#DCB755"/>
<stop offset="0.95" stop-color="#D5AF4C"/>
<stop offset="0.97" stop-color="#CBA542"/>
</linearGradient>
</defs>
<g id="Layer 2">
<path id="Vector" d="M10.5 3C9.11553 3 7.76215 3.41054 6.61101 4.17971C5.45987 4.94888 4.56266 6.04213 4.03285 7.32122C3.50303 8.6003 3.36441 10.0078 3.63451 11.3656C3.9046 12.7235 4.57129 13.9708 5.55026 14.9497C6.52922 15.9287 7.7765 16.5954 9.13437 16.8655C10.4922 17.1356 11.8997 16.997 13.1788 16.4672C14.4579 15.9373 15.5511 15.0401 16.3203 13.889C17.0895 12.7378 17.5 11.3845 17.5 10C17.498 8.1441 16.7598 6.36481 15.4475 5.05249C14.1352 3.74017 12.3559 3.00203 10.5 3ZM13.6867 12.4133C13.6246 12.4919 13.5456 12.5555 13.4556 12.5994C13.3656 12.6433 13.2668 12.6663 13.1667 12.6667C13.0159 12.6679 12.8695 12.6159 12.7533 12.52L10.0866 10.52C10.0081 10.4579 9.94452 10.3789 9.90068 10.2889C9.85684 10.1989 9.83382 10.1001 9.83333 10V5.33333C9.83333 5.15652 9.90357 4.98695 10.0286 4.86193C10.1536 4.7369 10.3232 4.66667 10.5 4.66667C10.6768 4.66667 10.8464 4.7369 10.9714 4.86193C11.0964 4.98695 11.1667 5.15652 11.1667 5.33333V9.68L13.5801 11.48C13.6495 11.5335 13.7074 11.6003 13.7505 11.6766C13.7936 11.7529 13.8209 11.8371 13.8308 11.9241C13.8407 12.0112 13.8331 12.0993 13.8083 12.1833C13.7836 12.2674 13.7422 12.3456 13.6867 12.4133Z" fill="url(#paint0_linear_1415_8635)"/>
<path id="Vector_2" d="M10.5 0C8.52219 0 6.58879 0.58649 4.9443 1.6853C3.29981 2.78412 2.01809 4.3459 1.26121 6.17316C0.504333 8.00042 0.3063 10.0111 0.692152 11.9509C1.078 13.8907 2.03041 15.6725 3.42894 17.0711C4.82746 18.4696 6.60929 19.422 8.5491 19.8078C10.4889 20.1937 12.4996 19.9957 14.3268 19.2388C16.1541 18.4819 17.7159 17.2002 18.8147 15.5557C19.9135 13.9112 20.5 11.9778 20.5 10C20.4968 7.34882 19.4422 4.80716 17.5675 2.93249C15.6928 1.05783 13.1512 0.00322501 10.5 0ZM10.5 18.3778C8.84304 18.3778 7.22328 17.8864 5.84557 16.9659C4.46785 16.0453 3.39405 14.7369 2.75996 13.206C2.12586 11.6752 1.95996 9.9907 2.28321 8.36558C2.60647 6.74045 3.40438 5.24767 4.57603 4.07602C5.74768 2.90437 7.24045 2.10647 8.86558 1.78321C10.4907 1.45995 12.1752 1.62586 13.706 2.25995C15.2369 2.89405 16.5453 3.96784 17.4659 5.34556C18.3864 6.72328 18.8778 8.34303 18.8778 10C18.8756 12.2213 17.9923 14.3509 16.4216 15.9216C14.8509 17.4923 12.7213 18.3756 10.5 18.3778Z" fill="url(#paint1_linear_1415_8635)"/>
</g>
</svg>
