<svg width="24" height="24" viewBox="0 0 24 24" fill="none" xmlns="http://www.w3.org/2000/svg">
<defs>
<linearGradient id="paint0_linear_2755_4729" x1="-22.7368" y1="3.30687" x2="2.55579" y2="35.3899" gradientUnits="userSpaceOnUse">
<stop stop-color="#8A4026"/>
<stop offset="0.01" stop-color="#966D32"/>
<stop offset="0.03" stop-color="#A78041"/>
<stop offset="0.04" stop-color="#BA9653"/>
<stop offset="0.08" stop-color="#D8B870"/>
<stop offset="0.09" stop-color="#E4C67B"/>
<stop offset="0.12" stop-color="#DBB565"/>
<stop offset="0.13" stop-color="#D9B160"/>
<stop offset="0.16" stop-color="#D2A550"/>
<stop offset="0.18" stop-color="#D0A14B"/>
<stop offset="0.21" stop-color="#D5A750"/>
<stop offset="0.24" stop-color="#DDB258"/>
<stop offset="0.27" stop-color="#E4BD61"/>
<stop offset="0.31" stop-color="#F4D576"/>
<stop offset="0.37" stop-color="#F8E881"/>
<stop offset="0.4" stop-color="#F2DF7B"/>
<stop offset="0.45" stop-color="#E7C969"/>
<stop offset="0.48" stop-color="#E3C263"/>
<stop offset="0.54" stop-color="#F0D35A"/>
<stop offset="0.58" stop-color="#F9DF58"/>
<stop offset="0.62" stop-color="#EFD052"/>
<stop offset="0.69" stop-color="#DBB640"/>
<stop offset="0.74" stop-color="#D2AA38"/>
<stop offset="0.79" stop-color="#C69930"/>
<stop offset="0.84" stop-color="#C1932D"/>
<stop offset="0.85" stop-color="#C59833"/>
<stop offset="0.88" stop-color="#D2A744"/>
<stop offset="0.9" stop-color="#EAC565"/>
<stop offset="0.93" stop-color="#DCB755"/>
<stop offset="0.95" stop-color="#D5AF4C"/>
<stop offset="0.97" stop-color="#CBA542"/>
</linearGradient>
<linearGradient id="paint1_linear_2755_4729" x1="-12.7512" y1="13.7045" x2="12.9356" y2="35.2502" gradientUnits="userSpaceOnUse">
<stop stop-color="#8A4026"/>
<stop offset="0.01" stop-color="#966D32"/>
<stop offset="0.03" stop-color="#A78041"/>
<stop offset="0.04" stop-color="#BA9653"/>
<stop offset="0.08" stop-color="#D8B870"/>
<stop offset="0.09" stop-color="#E4C67B"/>
<stop offset="0.12" stop-color="#DBB565"/>
<stop offset="0.13" stop-color="#D9B160"/>
<stop offset="0.16" stop-color="#D2A550"/>
<stop offset="0.18" stop-color="#D0A14B"/>
<stop offset="0.21" stop-color="#D5A750"/>
<stop offset="0.24" stop-color="#DDB258"/>
<stop offset="0.27" stop-color="#E4BD61"/>
<stop offset="0.31" stop-color="#F4D576"/>
<stop offset="0.37" stop-color="#F8E881"/>
<stop offset="0.4" stop-color="#F2DF7B"/>
<stop offset="0.45" stop-color="#E7C969"/>
<stop offset="0.48" stop-color="#E3C263"/>
<stop offset="0.54" stop-color="#F0D35A"/>
<stop offset="0.58" stop-color="#F9DF58"/>
<stop offset="0.62" stop-color="#EFD052"/>
<stop offset="0.69" stop-color="#DBB640"/>
<stop offset="0.74" stop-color="#D2AA38"/>
<stop offset="0.79" stop-color="#C69930"/>
<stop offset="0.84" stop-color="#C1932D"/>
<stop offset="0.85" stop-color="#C59833"/>
<stop offset="0.88" stop-color="#D2A744"/>
<stop offset="0.9" stop-color="#EAC565"/>
<stop offset="0.93" stop-color="#DCB755"/>
<stop offset="0.95" stop-color="#D5AF4C"/>
<stop offset="0.97" stop-color="#CBA542"/>
</linearGradient>
<linearGradient id="paint2_linear_2755_4729" x1="-10.5589" y1="-1.33651" x2="13.2294" y2="14.2503" gradientUnits="userSpaceOnUse">
<stop stop-color="#8A4026"/>
<stop offset="0.01" stop-color="#966D32"/>
<stop offset="0.03" stop-color="#A78041"/>
<stop offset="0.04" stop-color="#BA9653"/>
<stop offset="0.08" stop-color="#D8B870"/>
<stop offset="0.09" stop-color="#E4C67B"/>
<stop offset="0.12" stop-color="#DBB565"/>
<stop offset="0.13" stop-color="#D9B160"/>
<stop offset="0.16" stop-color="#D2A550"/>
<stop offset="0.18" stop-color="#D0A14B"/>
<stop offset="0.21" stop-color="#D5A750"/>
<stop offset="0.24" stop-color="#DDB258"/>
<stop offset="0.27" stop-color="#E4BD61"/>
<stop offset="0.31" stop-color="#F4D576"/>
<stop offset="0.37" stop-color="#F8E881"/>
<stop offset="0.4" stop-color="#F2DF7B"/>
<stop offset="0.45" stop-color="#E7C969"/>
<stop offset="0.48" stop-color="#E3C263"/>
<stop offset="0.54" stop-color="#F0D35A"/>
<stop offset="0.58" stop-color="#F9DF58"/>
<stop offset="0.62" stop-color="#EFD052"/>
<stop offset="0.69" stop-color="#DBB640"/>
<stop offset="0.74" stop-color="#D2AA38"/>
<stop offset="0.79" stop-color="#C69930"/>
<stop offset="0.84" stop-color="#C1932D"/>
<stop offset="0.85" stop-color="#C59833"/>
<stop offset="0.88" stop-color="#D2A744"/>
<stop offset="0.9" stop-color="#EAC565"/>
<stop offset="0.93" stop-color="#DCB755"/>
<stop offset="0.95" stop-color="#D5AF4C"/>
<stop offset="0.97" stop-color="#CBA542"/>
</linearGradient>
<clipPath id="clip0_2755_4729">
<rect width="24" height="24" fill="white"/>
</clipPath>
</defs>
<g clip-path="url(#clip0_2755_4729)">
<path d="M19.6172 4.66479C17.3432 4.35535 13.5548 7.97027 16.1664 9.6488C17.0337 10.0473 17.8777 9.63942 18.3091 8.67825C18.9233 7.10288 21.1316 7.72646 20.9347 9.31122C20.8409 10.0098 20.2736 10.4599 19.4859 10.4599C16.579 10.4646 13.672 10.4646 10.7698 10.4646C10.5541 10.4646 2.03486 10.4599 1.83794 10.4646C0.192233 10.4787 0.00468862 11.543 0 12.0025C0 13.048 0.74549 13.5732 1.81918 13.5685C3.33361 13.5779 6.08583 13.5638 7.63776 13.5685C11.473 13.5591 15.7913 13.5919 19.5281 13.5591C25.4545 13.5216 25.4967 4.81483 19.6172 4.66479Z" fill="url(#paint0_linear_2755_4729)"/>
<path d="M12.4202 15.0782C11.956 15.1204 11.4918 15.1298 11.023 15.1298C8.74431 15.1298 6.23122 15.1298 4.02757 15.1298C1.7489 15.0313 1.76765 18.2759 4.03225 18.1868H10.0009H13.5736C14.5019 18.1868 15.1115 18.7119 15.1208 19.5184C15.1537 20.2545 14.5816 20.8734 13.8502 20.9062C13.8268 20.9062 13.8033 20.9062 13.7752 20.9062C12.2373 20.9109 12.6265 18.8432 11.037 18.8666C9.93522 18.8807 9.18973 19.9263 9.58827 21.0375C10.1603 22.7816 11.8951 24.0007 13.8127 24.0007C20.1564 23.5177 19.6782 14.4546 12.4202 15.0782Z" fill="url(#paint1_linear_2755_4729)"/>
<path d="M9.1241 0.0182972C6.87356 -0.300529 2.96325 3.49725 5.82331 5.03512C6.62037 5.26017 7.1877 5.26955 7.83473 4.05989C8.35047 2.64861 10.3009 2.9018 10.4838 4.30369C10.6057 6.12288 8.57084 5.8275 7.2299 5.83218C5.81862 5.83218 4.06039 5.8275 2.75226 5.83687C0.614255 5.88845 0.651764 8.66411 2.70069 8.86103C4.7965 8.9548 7.1033 8.86572 9.22725 8.88916C15.0458 8.68755 14.8958 0.102692 9.1241 0.0182972Z" fill="url(#paint2_linear_2755_4729)"/>
</g>
</svg>
