<svg width="25" height="14" viewBox="0 0 25 14" fill="none" xmlns="http://www.w3.org/2000/svg">
<path d="M1 1H24" stroke="white" stroke-width="2" stroke-linecap="round"/>
<path d="M1 6C0.447715 6 0 6.44772 0 7C0 7.55228 0.447715 8 1 8V6ZM1 8H11V6H1V8Z" fill="white"/>
<path d="M24 8C24.5523 8 25 7.55228 25 7C25 6.44772 24.5523 6 24 6V8ZM14 8H24V6H14V8Z" fill="white"/>
<path d="M1 12C0.447715 12 0 12.4477 0 13C0 13.5523 0.447715 14 1 14V12ZM1 14H11V12H1V14Z" fill="white"/>
<path d="M24 14C24.5523 14 25 13.5523 25 13C25 12.4477 24.5523 12 24 12V14ZM14 14H24V12H14V14Z" fill="white"/>
</svg>
