<svg width="25" height="14" viewBox="0 0 25 14" fill="none" xmlns="http://www.w3.org/2000/svg">
<path d="M1 0C0.447715 0 0 0.447715 0 1C0 1.55228 0.447715 2 1 2V0ZM1 2H11V0H1V2Z" fill="white"/>
<path d="M24 2C24.5523 2 25 1.55228 25 1C25 0.447715 24.5523 0 24 0V2ZM14 2H24V0H14V2Z" fill="white"/>
<path d="M1 6C0.447715 6 0 6.44772 0 7C0 7.55228 0.447715 8 1 8V6ZM1 8H11V6H1V8Z" fill="white"/>
<path d="M24 8C24.5523 8 25 7.55228 25 7C25 6.44772 24.5523 6 24 6V8ZM14 8H24V6H14V8Z" fill="white"/>
<path d="M1 13H24" stroke="white" stroke-width="2" stroke-linecap="round"/>
</svg>
